<svg id="Layer_1" data-name="Layer 1" xmlns="http://www.w3.org/2000/svg" viewBox="0 0 961 128"><defs><style>.cls-1{fill:#fff;}</style></defs><title>ds-horiz</title><rect class="cls-1" width="95.28" height="95.28"/><path d="M208.33,105.78H170.28a3.48,3.48,0,0,1-4.06-4.06V28.55a4.25,4.25,0,0,1,1-3.1,4.25,4.25,0,0,1,3.1-1h38.05q14.11,0,20.95,5.64t6.83,17.39V82.75q0,11.75-6.83,17.39T208.33,105.78ZM191.85,46.05V84.44h13.44a5.31,5.31,0,0,0,4-1.35,5.85,5.85,0,0,0,1.3-4.18V51.47a5.63,5.63,0,0,0-1.3-4.12,5.47,5.47,0,0,0-4-1.3Z"/><path d="M305.43,105.78H253a3.48,3.48,0,0,1-4.06-4.06V28.55a4.25,4.25,0,0,1,1-3.1,4.25,4.25,0,0,1,3.1-1h52.39a4.27,4.27,0,0,1,3.11,1,4.25,4.25,0,0,1,1,3.1V41.76a4.27,4.27,0,0,1-1,3.11,4.27,4.27,0,0,1-3.11,1H274.27v8.69h22a3.48,3.48,0,0,1,4.06,4.07V70.67a3.48,3.48,0,0,1-4.06,4.06h-22v9.71h31.16a3.48,3.48,0,0,1,4.07,4.07v13.21a3.48,3.48,0,0,1-4.07,4.06Z"/><path d="M360.46,105.78H324.79a3.48,3.48,0,0,1-4.07-4.06V88.51a3.48,3.48,0,0,1,4.07-4.07h30.37a2.61,2.61,0,0,0,2.2-1,3.68,3.68,0,0,0,.73-2.31,4.48,4.48,0,0,0-.73-2.83,3,3,0,0,0-2.2-1L338.22,75q-7.91-1.12-12.7-5.2t-4.8-13.55V44.36q0-9.6,6.21-14.74t17.16-5.13h31.62a4.25,4.25,0,0,1,3.1,1,4.25,4.25,0,0,1,1,3.1V42a4.25,4.25,0,0,1-1,3.1,4.25,4.25,0,0,1-3.1,1H349.4a2.76,2.76,0,0,0-2.26,1,3.68,3.68,0,0,0-.79,2.43,3.88,3.88,0,0,0,.79,2.48,3,3,0,0,0,2.26,1.13l16.82,2.26A25,25,0,0,1,379,60.5q4.86,4.08,4.86,13.55V85.91q0,9.6-6.27,14.73T360.46,105.78Z"/><path d="M398.74,105.78a3.47,3.47,0,0,1-4.06-4.06V88.28a3.47,3.47,0,0,1,4.06-4.06h11.18V46.28H398.74a4.27,4.27,0,0,1-3.11-1,4.27,4.27,0,0,1-.95-3.11V28.55a4.25,4.25,0,0,1,.95-3.1,4.27,4.27,0,0,1,3.11-1h48.1a4.23,4.23,0,0,1,3.1,1,4.25,4.25,0,0,1,1,3.1V42.21a4.27,4.27,0,0,1-1,3.11,4.23,4.23,0,0,1-3.1,1h-11V84.22h11a3.49,3.49,0,0,1,4.07,4.06v13.44a3.49,3.49,0,0,1-4.07,4.06Z"/><path d="M526.11,105.78H490.55q-14.12,0-20.95-5.64t-6.83-17.39V47.52q0-11.75,6.83-17.39t20.95-5.64h28.22a4.27,4.27,0,0,1,3.11,1,4.25,4.25,0,0,1,1,3.1V42.21a4.27,4.27,0,0,1-1,3.11,4.27,4.27,0,0,1-3.11,1H495.29a8,8,0,0,0-5.2,1.41,5.22,5.22,0,0,0-1.69,4.23v27a5.85,5.85,0,0,0,1.3,4.18,5.15,5.15,0,0,0,3.89,1.35h11V66.83a3.48,3.48,0,0,1,4.06-4.07h17.5a3.48,3.48,0,0,1,4.07,4.07v34.89a3.48,3.48,0,0,1-4.07,4.06Z"/><path d="M563.65,105.78H546.72a3.48,3.48,0,0,1-4.07-4.06V28.55a4.25,4.25,0,0,1,1-3.1,4.27,4.27,0,0,1,3.11-1h11.74a7.78,7.78,0,0,1,6.66,3L587,52.6v-24a4.2,4.2,0,0,1,1-3.1,4.23,4.23,0,0,1,3.1-1H608a4.26,4.26,0,0,1,3.1,1,4.25,4.25,0,0,1,1,3.1v73.17a3.48,3.48,0,0,1-4.06,4.06H591.09a3.49,3.49,0,0,1-4.07-4.06V87.83l-19.3-23.37v37.26a3.48,3.48,0,0,1-4.07,4.06Z"/><path d="M679.48,26.49a2.66,2.66,0,0,1,1.69.37c.09.09.38.47.38,1.69V42a2.68,2.68,0,0,1-.37,1.69,2.72,2.72,0,0,1-1.7.37h-26.3a4.75,4.75,0,0,0-3.81,1.69,5.7,5.7,0,0,0-1.24,3.7,5.84,5.84,0,0,0,1.21,3.71A5,5,0,0,0,653,55l16.76,2.25c4.87.7,8.82,2.29,11.75,4.75,2.75,2.3,4.14,6.34,4.14,12V85.91c0,5.82-1.81,10.13-5.53,13.19s-9.12,4.68-15.84,4.68H628.56c-1.22,0-1.6-.29-1.69-.38a2.62,2.62,0,0,1-.37-1.68V88.51c0-1.23.28-1.61.37-1.69s.47-.38,1.69-.38h30.38a4.55,4.55,0,0,0,3.78-1.74,5.66,5.66,0,0,0,1.15-3.53,6.31,6.31,0,0,0-1.18-4.09,4.92,4.92,0,0,0-3.53-1.74L642.28,73c-4.86-.7-8.8-2.29-11.69-4.74-2.72-2.3-4.09-6.35-4.09-12V44.36c0-5.82,1.79-10.14,5.48-13.2s9.1-4.67,15.89-4.67h31.61m0-2H647.87q-10.95,0-17.16,5.13T624.5,44.36V56.21q0,9.49,4.8,13.55T642,75l16.94,2.37a3,3,0,0,1,2.19,1,4.48,4.48,0,0,1,.74,2.83,3.69,3.69,0,0,1-.74,2.31,2.59,2.59,0,0,1-2.19,1H628.56a3.48,3.48,0,0,0-4.06,4.07v13.21a3.48,3.48,0,0,0,4.06,4.06h35.68q10.85,0,17.11-5.14t6.26-14.73V74.05q0-9.48-4.85-13.55A25,25,0,0,0,670,55.31l-16.82-2.26a3,3,0,0,1-2.26-1.13,3.88,3.88,0,0,1-.79-2.48,3.68,3.68,0,0,1,.79-2.43,2.75,2.75,0,0,1,2.26-1h26.3a4.27,4.27,0,0,0,3.11-1,4.25,4.25,0,0,0,1-3.1V28.55a4.25,4.25,0,0,0-1-3.1,4.27,4.27,0,0,0-3.11-1Z"/><path d="M737.93,26.49c9.61,0,16.18,1.83,19.54,5.45s5.11,8.48,5.11,14.56V61c0,6.08-1.67,10.84-5.11,14.56S747.54,81,737.93,81H723v20.75a2.61,2.61,0,0,1-.38,1.69c-.08.08-.47.37-1.69.37h-17.5a2.59,2.59,0,0,1-1.69-.38,2.62,2.62,0,0,1-.37-1.68V28.55c0-1.22.28-1.6.37-1.69a2.68,2.68,0,0,1,1.69-.37h34.55M722.72,64.65h12.16c2.92,0,4.94-.9,6-2.66a9.36,9.36,0,0,0,1.3-4.87v-6a9.36,9.36,0,0,0-1.3-4.87c-1.07-1.76-3.09-2.66-6-2.66H722.72V64.65m15.21-40.16H703.38a4.23,4.23,0,0,0-3.1,1,4.25,4.25,0,0,0-1,3.1v73.17a3.48,3.48,0,0,0,4.06,4.06h17.5a3.48,3.48,0,0,0,4.07-4.06V83h13q15.36,0,21-6.09T764.58,61V46.5q0-9.81-5.65-15.92t-21-6.09ZM724.72,62.65v-17h10.16c2.19,0,3.62.57,4.3,1.69a7.41,7.41,0,0,1,1,3.84v6a7.39,7.39,0,0,1-1,3.84c-.68,1.13-2.11,1.69-4.3,1.69Z"/><path d="M832.47,26.49c1.22,0,1.6.29,1.69.37s.38.47.38,1.69V41.76a2.66,2.66,0,0,1-.38,1.69c-.09.09-.47.38-1.69.38H799.31V56.52h24c1.22,0,1.6.29,1.69.37s.37.48.37,1.7V70.67c0,1.22-.28,1.6-.37,1.69s-.47.37-1.69.37h-24V86.44h33.16c1.22,0,1.6.29,1.69.38s.38.47.38,1.69v13.21c0,1.22-.29,1.6-.38,1.69s-.47.37-1.69.37H780.08a1.6,1.6,0,0,1-2.06-2.06V28.55c0-1.22.28-1.6.37-1.69a2.68,2.68,0,0,1,1.69-.37h52.39m0-2H780.08a4.23,4.23,0,0,0-3.1,1,4.25,4.25,0,0,0-1,3.1v73.17a3.48,3.48,0,0,0,4.06,4.06h52.39a3.48,3.48,0,0,0,4.07-4.06V88.51a3.48,3.48,0,0,0-4.07-4.07H801.31V74.73h22a3.48,3.48,0,0,0,4.06-4.06V58.59a3.48,3.48,0,0,0-4.06-4.07h-22V45.83h31.16a4.27,4.27,0,0,0,3.11-1,4.27,4.27,0,0,0,1-3.11V28.55a4.25,4.25,0,0,0-1-3.1,4.27,4.27,0,0,0-3.11-1Z"/><path d="M913.54,26.49a2.86,2.86,0,0,1,.9.11,2.87,2.87,0,0,1-.25.81L902.67,53.72l-1.16,2.64,2.89.16a12.14,12.14,0,0,1,8.74,3.81c2.19,2.39,3.25,5.51,3.25,9.55v31.84c0,1.22-.28,1.6-.37,1.69s-.47.37-1.69.37H896.94a2.59,2.59,0,0,1-1.69-.38,2.64,2.64,0,0,1-.37-1.68v-22a6.06,6.06,0,0,0-1.41-4.15,5.38,5.38,0,0,0-4.21-1.69h-16.9v27.86a2.61,2.61,0,0,1-.38,1.69c-.08.08-.46.37-1.68.37H852.79a1.61,1.61,0,0,1-2.06-2.06V28.55c0-1.22.29-1.6.38-1.69a2.62,2.62,0,0,1,1.68-.37H870.3c1.21,0,1.6.29,1.68.37s.38.47.38,1.69v28h7.82l.52-1.19L892.33,29l0,0,0,0A3.74,3.74,0,0,1,893.71,27a4.65,4.65,0,0,1,2.44-.54h17.39m0-2H896.15a6.55,6.55,0,0,0-3.5.84,5.75,5.75,0,0,0-2.15,2.88L878.87,54.52h-4.51v-26a4.25,4.25,0,0,0-1-3.1,4.26,4.26,0,0,0-3.1-1H852.79a4.25,4.25,0,0,0-3.1,1,4.25,4.25,0,0,0-1,3.1v73.17a3.48,3.48,0,0,0,4.06,4.06H870.3a3.48,3.48,0,0,0,4.06-4.06V75.86h14.9a3.42,3.42,0,0,1,2.71,1,4.1,4.1,0,0,1,.91,2.82v22a3.48,3.48,0,0,0,4.06,4.06h17.39a3.48,3.48,0,0,0,4.06-4.06V69.88q0-6.78-3.78-10.9a14.15,14.15,0,0,0-10.11-4.46L916,28.21c.53-1.2.57-2.12.11-2.76a3,3,0,0,0-2.59-1Z"/><path d="M57.13,48.81a7,7,0,0,0-1.65-3.15A8.36,8.36,0,0,0,52,43.55a18.13,18.13,0,0,0-5.79-.77h-17V80.7h17A19.12,19.12,0,0,0,52.05,80a8.32,8.32,0,0,0,3.5-2,6.44,6.44,0,0,0,1.61-3.09A17.5,17.5,0,0,0,57.55,71V52.64A16.78,16.78,0,0,0,57.13,48.81ZM56.42,71a15.15,15.15,0,0,1-.37,3.45,5.65,5.65,0,0,1-1.44,2.68,7.46,7.46,0,0,1-3.07,1.75,17.88,17.88,0,0,1-5.31.65H30.34V43.9H46.23a16.54,16.54,0,0,1,5.24.69,7.51,7.51,0,0,1,3.07,1.81A6.22,6.22,0,0,1,56,49.15a14.57,14.57,0,0,1,.41,3.49ZM45.88,74.23H37V49.38h8.89a4,4,0,0,1,2.9,1,4,4,0,0,1,1,3V70.2a4.21,4.21,0,0,1-1,3A3.86,3.86,0,0,1,45.88,74.23ZM38.24,73h7.64a2.68,2.68,0,0,0,2-.64,3,3,0,0,0,.63-2.14V53.34a2.93,2.93,0,0,0-.62-2.1,2.84,2.84,0,0,0-2-.61H38.24Zm63.58.49a6.91,6.91,0,0,1-2.15,5.19,8.08,8.08,0,0,1-5.77,2H76.39V79.57H93.9a7,7,0,0,0,4.95-1.71,5.76,5.76,0,0,0,1.84-4.39v-4c0-2.11-.36-3.56-1.08-4.33a5.71,5.71,0,0,0-3-1.57L82,60.56a6,6,0,0,1-3-1.48c-.81-.75-1.22-2.13-1.22-4.08V49.31a6.1,6.1,0,0,1,2-4.71A7.58,7.58,0,0,1,85,42.78h15.63V43.9H85a6.41,6.41,0,0,0-4.5,1.54,5,5,0,0,0-1.67,3.87V55a4.57,4.57,0,0,0,.91,3.25,4.5,4.5,0,0,0,2.45,1.19l14.66,3a6.64,6.64,0,0,1,3.54,1.86c.94,1,1.42,2.7,1.42,5.15Zm-41-34h0c-2.91-2.4-7.37-3.62-13.28-3.62H24.11A4.53,4.53,0,0,0,23,36L8.82,8,7.7,8.54l14.14,28-.08.06A3.26,3.26,0,0,0,21,39V84a3.36,3.36,0,0,0,.65,2.19L7.68,119.36l1.15.49,13.85-33a4.4,4.4,0,0,0,1.43.21H47.5c5.91,0,10.38-1.21,13.28-3.61s4.42-6.19,4.42-11.17V50.65C65.2,45.66,63.71,41.9,60.78,39.48ZM64,72.31c0,4.59-1.34,8-4,10.2s-6.87,3.33-12.48,3.33H24.11a2.07,2.07,0,0,1-1.47-.4A2.08,2.08,0,0,1,22.23,84V39a2.07,2.07,0,0,1,.41-1.47,2.08,2.08,0,0,1,1.47-.41H47.5c5.61,0,9.81,1.12,12.48,3.33s4,5.61,4,10.21Zm56.45,47.42L106,83.54c2.51-2.2,3.79-5.33,3.79-9.29V67c0-4.06-1.08-7-3.2-8.81h0a16.1,16.1,0,0,0-8.17-3.33L88,53.43A1.26,1.26,0,0,1,87.1,53a1.76,1.76,0,0,1-.35-1.14,1.66,1.66,0,0,1,.34-1.1,1.08,1.08,0,0,1,.91-.36h16.17a2.74,2.74,0,0,0,3.12-3.12V39a3.65,3.65,0,0,0-.49-2L120.39,8.24l-1.12-.54L105.8,36.17a3.92,3.92,0,0,0-1.63-.31H84.73c-4.61,0-8.3,1.11-11,3.3s-4,5.43-4,9.54V56c0,4.07,1.07,7,3.17,8.81A15.68,15.68,0,0,0,81,68.13L91.49,69.6a1.24,1.24,0,0,1,.92.39,2.25,2.25,0,0,1,.31,1.34,1.7,1.7,0,0,1-.32,1,1,1,0,0,1-.86.34H72.86a2.75,2.75,0,0,0-3.12,3.13V84a2.74,2.74,0,0,0,3.12,3.12H94.8A17.39,17.39,0,0,0,105,84.34l14.28,35.85ZM72.86,85.84A1.53,1.53,0,0,1,71,84V75.85A1.55,1.55,0,0,1,72.86,74H91.54a2.22,2.22,0,0,0,1.85-.83A2.94,2.94,0,0,0,94,71.33a3.3,3.3,0,0,0-.6-2.13,2.39,2.39,0,0,0-1.75-.84L81.21,66.9a14.57,14.57,0,0,1-7.49-3.05C71.91,62.31,71,59.67,71,56V48.7c0-3.77,1.17-6.57,3.59-8.57s5.83-3,10.15-3h19.44a2.1,2.1,0,0,1,1.47.41,2.12,2.12,0,0,1,.41,1.47v8.26a1.55,1.55,0,0,1-1.88,1.87H88a2.29,2.29,0,0,0-1.87.82,2.86,2.86,0,0,0-.63,1.89,3,3,0,0,0,.62,1.91,2.42,2.42,0,0,0,1.79.93l10.34,1.39a14.75,14.75,0,0,1,7.53,3c1.84,1.53,2.76,4.18,2.76,7.85v7.29c0,3.77-1.18,6.58-3.62,8.58s-5.85,3-10.12,3ZM123,4.82H4.82V123H123Zm-3.29,114.92H8.26V8.26H119.74ZM0,0V128H128V0ZM125.52,125.52H2.32V2.32h123.2Z"/></svg>