<svg id="Layer_1" data-name="Layer 1" xmlns="http://www.w3.org/2000/svg" viewBox="0 0 200 32"><title>ds-horiz</title><path d="M15.49,12.44a1.7,1.7,0,0,0-.73-.43,4.25,4.25,0,0,0-1.31-.17h-4v9h4a4.85,4.85,0,0,0,1.34-.16,1.82,1.82,0,0,0,.72-.41,1.34,1.34,0,0,0,.33-.61,4,4,0,0,0,.09-.87V13.94a3.52,3.52,0,0,0-.1-.87A1.38,1.38,0,0,0,15.49,12.44Zm-1.27,6.12a1,1,0,0,1-.21.68.85.85,0,0,1-.65.22H11.18V13.25h2.18a.89.89,0,0,1,.65.21.9.9,0,0,1,.21.66Zm3-8a5.26,5.26,0,0,0-3.39-.91H7.63a.74.74,0,0,0-.51.15.72.72,0,0,0-.15.51V22.19a.7.7,0,0,0,.15.5.74.74,0,0,0,.51.16h6.16a5.26,5.26,0,0,0,3.39-.92,3.46,3.46,0,0,0,1.1-2.81v-5.7A3.47,3.47,0,0,0,17.18,10.6Zm-.55,8.18a5.06,5.06,0,0,1-.1,1,1.88,1.88,0,0,1-.48.9,2.37,2.37,0,0,1-1,.59,5.13,5.13,0,0,1-1.6.21H8.77V11.14h4.68a4.72,4.72,0,0,1,1.59.22A2.36,2.36,0,0,1,16,12a2,2,0,0,1,.49.92,5,5,0,0,1,.11,1ZM29,15.52a4,4,0,0,0-2.06-.84l-2.72-.37a.49.49,0,0,1-.37-.18.68.68,0,0,1,0-.8.47.47,0,0,1,.37-.15h4.25A.68.68,0,0,0,29,13a.7.7,0,0,0,.15-.5V10.35A.72.72,0,0,0,29,9.84a.72.72,0,0,0-.51-.15H23.36a4.27,4.27,0,0,0-2.78.83,2.91,2.91,0,0,0-1,2.38v1.92a2.73,2.73,0,0,0,.77,2.2,4.12,4.12,0,0,0,2.06.84l2.74.38a.51.51,0,0,1,.36.16.8.8,0,0,1,.11.46.68.68,0,0,1-.11.38.43.43,0,0,1-.36.15H20.23a.65.65,0,0,0-.5.16.7.7,0,0,0-.15.5v2.14a.56.56,0,0,0,.65.66H26A4.22,4.22,0,0,0,28.78,22a2.91,2.91,0,0,0,1-2.38V17.71A2.7,2.7,0,0,0,29,15.52Zm-.94,3.9a2,2,0,0,1-.63,1.52,2.32,2.32,0,0,1-1.66.59H21v-.7h4.81a1.69,1.69,0,0,0,1.17-.4,1.31,1.31,0,0,0,.42-1V18.36a1.51,1.51,0,0,0-.23-1,1.34,1.34,0,0,0-.68-.35l-3.86-.79a1.74,1.74,0,0,1-.9-.44,1.59,1.59,0,0,1-.38-1.22v-1.5a1.8,1.8,0,0,1,.59-1.38,2.18,2.18,0,0,1,1.53-.54h4.32v.7H23.43a1.53,1.53,0,0,0-1.05.35,1.14,1.14,0,0,0-.37.87v1.5a1,1,0,0,0,.18.71.92.92,0,0,0,.54.26l3.86.79a2,2,0,0,1,1,.55,2.06,2.06,0,0,1,.43,1.49ZM6.87,31.87c-2,0-3.49-.59-4.16-1.71a9,9,0,0,1-1.06-4.68V19l-.8-.39A1.48,1.48,0,0,1,.17,18,3,3,0,0,1,0,16.8V15.4a2.89,2.89,0,0,1,.16-1.13,1.51,1.51,0,0,1,.69-.62l.8-.39V6.65A9.09,9.09,0,0,1,2.71,1.93C3.38.81,4.82.22,6.87.22H7.8V4.41H7.47A1.91,1.91,0,0,0,5.7,5.63a6.12,6.12,0,0,0-.43,2.54v4.68a4.34,4.34,0,0,1,0,.68.43.43,0,0,1-.16.05H5l-.84.24a1.44,1.44,0,0,0-.87.64,3,3,0,0,0-.41,1.65,3,3,0,0,0,.41,1.65,1.41,1.41,0,0,0,.88.65l.85.24h0l.16.06a4.24,4.24,0,0,1,0,.68V24a6.12,6.12,0,0,0,.43,2.54,1.91,1.91,0,0,0,1.77,1.22H7.8v4.11Zm21.84.35V28.11H29a1.88,1.88,0,0,0,1.77-1.23,6,6,0,0,0,.43-2.53v-4.6a4.34,4.34,0,0,1,0-.68.5.5,0,0,1,.16-.05h0l.84-.24a1.41,1.41,0,0,0,.87-.64,3,3,0,0,0,.42-1.65,3,3,0,0,0-.42-1.65,1.43,1.43,0,0,0-.87-.65l-.85-.24h0l-.16-.06a4.24,4.24,0,0,1,0-.68V8.52A6.1,6.1,0,0,0,30.81,6,1.88,1.88,0,0,0,29,4.76h-.33V.57h.93c2.06,0,3.5.59,4.16,1.71A9.12,9.12,0,0,1,34.86,7v6.61l.8.39a1.46,1.46,0,0,1,.69.62,2.77,2.77,0,0,1,.16,1.14v1.4a3,3,0,0,1-.17,1.17,1.38,1.38,0,0,1-.68.62l-.8.39v6.49a9,9,0,0,1-1.06,4.68c-.66,1.12-2.1,1.71-4.16,1.71Z"/><path d="M52.4,23.61H44.91a.85.85,0,0,1-.61-.19.83.83,0,0,1-.19-.61V8.41a.81.81,0,0,1,.19-.61.81.81,0,0,1,.61-.19H52.4a6.39,6.39,0,0,1,4.12,1.11,4.2,4.2,0,0,1,1.34,3.42v6.93a4.21,4.21,0,0,1-1.34,3.43A6.39,6.39,0,0,1,52.4,23.61ZM49.15,11.85v7.56H51.8a1.07,1.07,0,0,0,.79-.27,1.15,1.15,0,0,0,.25-.82v-5.4a1.11,1.11,0,0,0-.25-.81,1.11,1.11,0,0,0-.79-.26ZM71.51,23.61H61.2a.84.84,0,0,1-.61-.19.83.83,0,0,1-.19-.61V8.41a.81.81,0,0,1,.19-.61.8.8,0,0,1,.61-.19H71.51a.83.83,0,0,1,.61.19.85.85,0,0,1,.19.61V11a.87.87,0,0,1-.19.61.87.87,0,0,1-.61.19H65.37v1.71h4.34a.83.83,0,0,1,.61.19.85.85,0,0,1,.19.61V16.7a.69.69,0,0,1-.8.8H65.37v1.91h6.14a.83.83,0,0,1,.61.19.85.85,0,0,1,.19.61v2.6a.69.69,0,0,1-.8.8Zm10.83,0h-7a.84.84,0,0,1-.61-.19.83.83,0,0,1-.19-.61v-2.6a.81.81,0,0,1,.19-.61.8.8,0,0,1,.61-.19h6a.54.54,0,0,0,.44-.19.78.78,0,0,0,.14-.46.91.91,0,0,0-.14-.55.57.57,0,0,0-.44-.2L78,17.54a4.87,4.87,0,0,1-2.5-1,3.32,3.32,0,0,1-.94-2.67V11.52a3.53,3.53,0,0,1,1.22-2.9,5.11,5.11,0,0,1,3.38-1h6.22A.83.83,0,0,1,86,7.8a.81.81,0,0,1,.19.61v2.64a.81.81,0,0,1-.19.61.83.83,0,0,1-.61.19H80.16a.55.55,0,0,0-.44.19.71.71,0,0,0-.16.48.76.76,0,0,0,.16.49.57.57,0,0,0,.44.22l3.31.44a4.83,4.83,0,0,1,2.51,1,3.28,3.28,0,0,1,1,2.66V19.7a3.52,3.52,0,0,1-1.24,2.9A5.16,5.16,0,0,1,82.34,23.61Zm7.53,0a.87.87,0,0,1-.61-.19.83.83,0,0,1-.19-.61V20.16a.83.83,0,0,1,.19-.61.87.87,0,0,1,.61-.19h2.2V11.9h-2.2a.87.87,0,0,1-.61-.19.83.83,0,0,1-.19-.61V8.41a.81.81,0,0,1,.19-.61.83.83,0,0,1,.61-.19h9.47a.83.83,0,0,1,.61.19.85.85,0,0,1,.19.61V11.1a.87.87,0,0,1-.19.61.87.87,0,0,1-.61.19H97.18v7.46h2.16a.69.69,0,0,1,.8.8v2.65a.69.69,0,0,1-.8.8Zm25.07,0h-7a6.38,6.38,0,0,1-4.12-1.11,4.18,4.18,0,0,1-1.35-3.43V12.14a4.17,4.17,0,0,1,1.35-3.42,6.38,6.38,0,0,1,4.12-1.11h5.56a.83.83,0,0,1,.61.19.85.85,0,0,1,.19.61V11.1a.87.87,0,0,1-.19.61.87.87,0,0,1-.61.19h-4.63a1.59,1.59,0,0,0-1,.27,1,1,0,0,0-.33.84v5.31a1.15,1.15,0,0,0,.25.82,1,1,0,0,0,.77.27h2.16V15.94a.87.87,0,0,1,.18-.61.84.84,0,0,1,.62-.19h3.44a.81.81,0,0,1,.61.19.83.83,0,0,1,.19.61v6.87a.83.83,0,0,1-.19.61A.85.85,0,0,1,114.94,23.61Zm7.39,0H119a.88.88,0,0,1-.62-.19.87.87,0,0,1-.18-.61V8.41a.86.86,0,0,1,.18-.61.84.84,0,0,1,.62-.19h2.31a1.75,1.75,0,0,1,.72.13,1.77,1.77,0,0,1,.59.47l4.31,4.93V8.41a.81.81,0,0,1,.19-.61.81.81,0,0,1,.61-.19h3.33a.81.81,0,0,1,.61.19.81.81,0,0,1,.19.61v14.4a.83.83,0,0,1-.19.61.85.85,0,0,1-.61.19h-3.33a.85.85,0,0,1-.61-.19.83.83,0,0,1-.19-.61V20.07l-3.8-4.6v7.34a.83.83,0,0,1-.19.61A.87.87,0,0,1,122.33,23.61ZM144.69,8.84v1.78H140a1.76,1.76,0,0,0-1.4.64,2,2,0,0,0-.44,1.26,2,2,0,0,0,.42,1.25,1.84,1.84,0,0,0,1.28.69l3.28.44a3.71,3.71,0,0,1,1.89.74,2.38,2.38,0,0,1,.51,1.72V19.7a2.23,2.23,0,0,1-.78,1.94,4,4,0,0,1-2.58.73h-6.59V20.64h5.54a1.73,1.73,0,0,0,1.41-.67,1.92,1.92,0,0,0,.4-1.21,2,2,0,0,0-.42-1.33,1.77,1.77,0,0,0-1.25-.65l-3.3-.46a3.68,3.68,0,0,1-1.87-.74,2.4,2.4,0,0,1-.51-1.73V11.52a2.28,2.28,0,0,1,.77-1.95,4,4,0,0,1,2.59-.73h5.79m.44-1.23H138.9a5.1,5.1,0,0,0-3.37,1,3.53,3.53,0,0,0-1.23,2.9v2.33a3.32,3.32,0,0,0,.95,2.67,4.87,4.87,0,0,0,2.5,1l3.33.47a.59.59,0,0,1,.44.2.91.91,0,0,1,.14.55.78.78,0,0,1-.14.46.55.55,0,0,1-.44.19h-6a.83.83,0,0,0-.61.19.85.85,0,0,0-.19.61v2.6a.69.69,0,0,0,.8.8h7a5.16,5.16,0,0,0,3.36-1,3.52,3.52,0,0,0,1.24-2.9V17.36a3.28,3.28,0,0,0-1-2.66,4.86,4.86,0,0,0-2.51-1L140,13.23a.61.61,0,0,1-.45-.22.81.81,0,0,1-.15-.49.76.76,0,0,1,.15-.48.59.59,0,0,1,.45-.19h5.18a.83.83,0,0,0,.61-.19.85.85,0,0,0,.19-.61V8.41a.85.85,0,0,0-.19-.61.83.83,0,0,0-.61-.19Zm11.5,1.23c1.6,0,2.75.29,3.23.81a3.23,3.23,0,0,1,.78,2.29v2.85a3.24,3.24,0,0,1-.78,2.29c-.48.52-1.63.8-3.23.8h-3.79v4.49h-2.57V8.84h6.36m-3.83,7.51H156a2,2,0,0,0,1.9-.93,2.66,2.66,0,0,0,.38-1.39V12.85a2.66,2.66,0,0,0-.38-1.39,2,2,0,0,0-1.9-.93H152.8v5.82m3.83-8.74h-6.8a.81.81,0,0,0-.61.19.81.81,0,0,0-.19.61v14.4a.83.83,0,0,0,.19.61.85.85,0,0,0,.61.19h3.45a.69.69,0,0,0,.8-.8V19.12h2.55c2,0,3.39-.4,4.13-1.2a4.44,4.44,0,0,0,1.11-3.13V11.94a4.42,4.42,0,0,0-1.11-3.13c-.74-.8-2.11-1.2-4.13-1.2ZM154,15.12V11.76h2a.91.91,0,0,1,.85.34,1.44,1.44,0,0,1,.19.75V14a1.51,1.51,0,0,1-.19.76.93.93,0,0,1-.85.33ZM174.8,8.84v1.73h-6.93v4.18H173v1.51h-5.13v4.38h6.93v1.73h-9.44V8.84h9.44m.44-1.23H164.93a.8.8,0,0,0-.61.19.81.81,0,0,0-.19.61v14.4a.83.83,0,0,0,.19.61.84.84,0,0,0,.61.19h10.31a.69.69,0,0,0,.8-.8v-2.6a.85.85,0,0,0-.19-.61.83.83,0,0,0-.61-.19H169.1V17.5h4.34a.69.69,0,0,0,.8-.8V14.32a.85.85,0,0,0-.19-.61.83.83,0,0,0-.61-.19H169.1V11.81h6.14a.87.87,0,0,0,.61-.19A.87.87,0,0,0,176,11V8.41a.85.85,0,0,0-.19-.61.83.83,0,0,0-.61-.19Zm14.87,1.23L188.28,13l-.71,1.64,1.78.09a1.53,1.53,0,0,1,1.14.48,1.83,1.83,0,0,1,.42,1.31v5.83h-2.55v-3.9a2,2,0,0,0-.49-1.37,1.87,1.87,0,0,0-1.45-.62h-4.17v5.89h-2.58V8.84h2.58v5.91h2.92l.33-.73,2.29-5.18h2.32m1.08-1.23h-3.42a1.31,1.31,0,0,0-.69.16,1.11,1.11,0,0,0-.42.57l-2.29,5.18h-.89V8.41a.81.81,0,0,0-.19-.61.81.81,0,0,0-.61-.19h-3.44a.81.81,0,0,0-.61.19.81.81,0,0,0-.19.61v14.4a.83.83,0,0,0,.19.61.85.85,0,0,0,.61.19h3.44a.85.85,0,0,0,.61-.19.83.83,0,0,0,.19-.61V17.72h2.94a.69.69,0,0,1,.53.2.79.79,0,0,1,.18.55v4.34a.83.83,0,0,0,.19.61.84.84,0,0,0,.61.19h3.42a.87.87,0,0,0,.61-.19.83.83,0,0,0,.19-.61V16.54a3,3,0,0,0-.75-2.14,2.76,2.76,0,0,0-2-.88l2.27-5.18c.1-.24.11-.42,0-.54a.58.58,0,0,0-.51-.19Z"/></svg>