<svg id="Layer_1" data-name="Layer 1" xmlns="http://www.w3.org/2000/svg" viewBox="0 0 220 40"><title>ds-horiz</title><path d="M74.4,27.61H66.91a.85.85,0,0,1-.61-.19.83.83,0,0,1-.19-.61V12.41a.69.69,0,0,1,.8-.8H74.4a6.39,6.39,0,0,1,4.12,1.11,4.2,4.2,0,0,1,1.34,3.42v6.93a4.21,4.21,0,0,1-1.34,3.43A6.39,6.39,0,0,1,74.4,27.61ZM71.15,15.85v7.56H73.8a1.07,1.07,0,0,0,.79-.27,1.15,1.15,0,0,0,.25-.82v-5.4a.91.91,0,0,0-1-1.07ZM93.51,27.61H83.2a.84.84,0,0,1-.61-.19.83.83,0,0,1-.19-.61V12.41a.81.81,0,0,1,.19-.61.8.8,0,0,1,.61-.19H93.51a.83.83,0,0,1,.61.19.85.85,0,0,1,.19.61V15a.69.69,0,0,1-.8.8H87.37v1.71h4.34a.83.83,0,0,1,.61.19.85.85,0,0,1,.19.61V20.7a.69.69,0,0,1-.8.8H87.37v1.91h6.14a.83.83,0,0,1,.61.19.85.85,0,0,1,.19.61v2.6a.69.69,0,0,1-.8.8Zm10.83,0h-7a.84.84,0,0,1-.61-.19.83.83,0,0,1-.19-.61v-2.6a.81.81,0,0,1,.19-.61.8.8,0,0,1,.61-.19h6a.54.54,0,0,0,.44-.19.78.78,0,0,0,.14-.46.91.91,0,0,0-.14-.55.57.57,0,0,0-.44-.2L100,21.54a4.87,4.87,0,0,1-2.5-1,3.32,3.32,0,0,1-.94-2.67V15.52a3.53,3.53,0,0,1,1.22-2.9,5.11,5.11,0,0,1,3.38-1h6.22a.83.83,0,0,1,.61.19.81.81,0,0,1,.19.61v2.64a.81.81,0,0,1-.19.61.83.83,0,0,1-.61.19h-5.18a.55.55,0,0,0-.44.19.71.71,0,0,0-.16.48.76.76,0,0,0,.16.49.57.57,0,0,0,.44.22l3.31.44a4.83,4.83,0,0,1,2.51,1,3.28,3.28,0,0,1,1,2.66V23.7a3.52,3.52,0,0,1-1.24,2.9A5.16,5.16,0,0,1,104.34,27.61Zm7.53,0a.87.87,0,0,1-.61-.19.83.83,0,0,1-.19-.61V24.16a.83.83,0,0,1,.19-.61.87.87,0,0,1,.61-.19h2.2V15.9h-2.2a.87.87,0,0,1-.61-.19.83.83,0,0,1-.19-.61V12.41a.81.81,0,0,1,.19-.61.83.83,0,0,1,.61-.19h9.47a.83.83,0,0,1,.61.19.85.85,0,0,1,.19.61V15.1a.69.69,0,0,1-.8.8h-2.16v7.46h2.16a.69.69,0,0,1,.8.8v2.65a.69.69,0,0,1-.8.8Zm25.07,0h-7a6.38,6.38,0,0,1-4.12-1.11,4.18,4.18,0,0,1-1.35-3.43V16.14a4.17,4.17,0,0,1,1.35-3.42,6.38,6.38,0,0,1,4.12-1.11h5.56a.83.83,0,0,1,.61.19.85.85,0,0,1,.19.61V15.1a.69.69,0,0,1-.8.8h-4.63a1.59,1.59,0,0,0-1,.27,1,1,0,0,0-.33.84v5.31a1.15,1.15,0,0,0,.25.82,1,1,0,0,0,.77.27h2.16V19.94a.87.87,0,0,1,.18-.61.84.84,0,0,1,.62-.19h3.44a.81.81,0,0,1,.61.19.83.83,0,0,1,.19.61v6.87a.83.83,0,0,1-.19.61A.85.85,0,0,1,136.94,27.61Zm7.39,0H141a.88.88,0,0,1-.62-.19.87.87,0,0,1-.18-.61V12.41a.86.86,0,0,1,.18-.61.84.84,0,0,1,.62-.19h2.31a1.75,1.75,0,0,1,.72.13,1.77,1.77,0,0,1,.59.47l4.31,4.93V12.41a.69.69,0,0,1,.8-.8h3.33a.69.69,0,0,1,.8.8v14.4a.83.83,0,0,1-.19.61.85.85,0,0,1-.61.19h-3.33a.85.85,0,0,1-.61-.19.83.83,0,0,1-.19-.61V24.07l-3.8-4.6v7.34a.83.83,0,0,1-.19.61A.87.87,0,0,1,144.33,27.61Zm22.36-14.77v1.78H162a1.76,1.76,0,0,0-1.4.64,2,2,0,0,0-.44,1.26,2,2,0,0,0,.42,1.25,1.84,1.84,0,0,0,1.28.69l3.28.44a3.71,3.71,0,0,1,1.89.74,2.38,2.38,0,0,1,.51,1.72V23.7a2.23,2.23,0,0,1-.78,1.94,4,4,0,0,1-2.58.73h-6.59V24.64h5.54a1.73,1.73,0,0,0,1.41-.67,1.92,1.92,0,0,0,.4-1.21,2,2,0,0,0-.42-1.33,1.77,1.77,0,0,0-1.25-.65l-3.3-.46a3.68,3.68,0,0,1-1.87-.74,2.4,2.4,0,0,1-.51-1.73V15.52a2.28,2.28,0,0,1,.77-1.95,4,4,0,0,1,2.59-.73h5.79m.44-1.23H160.9a5.1,5.1,0,0,0-3.37,1,3.53,3.53,0,0,0-1.23,2.9v2.33a3.32,3.32,0,0,0,.95,2.67,4.87,4.87,0,0,0,2.5,1l3.33.47a.59.59,0,0,1,.44.2.91.91,0,0,1,.14.55.78.78,0,0,1-.14.46.55.55,0,0,1-.44.19h-6a.83.83,0,0,0-.61.19.85.85,0,0,0-.19.61v2.6a.69.69,0,0,0,.8.8h7a5.16,5.16,0,0,0,3.36-1,3.52,3.52,0,0,0,1.24-2.9V21.36a3.28,3.28,0,0,0-1-2.66,4.86,4.86,0,0,0-2.51-1L162,17.23a.61.61,0,0,1-.45-.22.81.81,0,0,1-.15-.49.76.76,0,0,1,.15-.48.59.59,0,0,1,.45-.19h5.18a.83.83,0,0,0,.61-.19.85.85,0,0,0,.19-.61V12.41a.85.85,0,0,0-.19-.61.83.83,0,0,0-.61-.19Zm11.5,1.23c1.6,0,2.75.29,3.23.81a3.23,3.23,0,0,1,.78,2.29v2.85a3.24,3.24,0,0,1-.78,2.29c-.48.52-1.63.8-3.23.8h-3.79v4.49h-2.57V12.84h6.36m-3.83,7.51H178a2,2,0,0,0,1.9-.93,2.66,2.66,0,0,0,.38-1.39V16.85a2.66,2.66,0,0,0-.38-1.39,2,2,0,0,0-1.9-.93H174.8v5.82m3.83-8.74h-6.8a.69.69,0,0,0-.8.8v14.4a.83.83,0,0,0,.19.61.85.85,0,0,0,.61.19h3.45a.69.69,0,0,0,.8-.8V23.12h2.55c2,0,3.39-.4,4.13-1.2a4.44,4.44,0,0,0,1.11-3.13V15.94a4.42,4.42,0,0,0-1.11-3.13c-.74-.8-2.11-1.2-4.13-1.2ZM176,19.12V15.76h2a.91.91,0,0,1,.85.34,1.44,1.44,0,0,1,.19.75V18a1.51,1.51,0,0,1-.19.76.93.93,0,0,1-.85.33Zm20.77-6.28v1.73h-6.93v4.18H195v1.51h-5.13v4.38h6.93v1.73h-9.44V12.84h9.44m.44-1.23H186.93a.8.8,0,0,0-.61.19.81.81,0,0,0-.19.61v14.4a.83.83,0,0,0,.19.61.84.84,0,0,0,.61.19h10.31a.69.69,0,0,0,.8-.8v-2.6a.85.85,0,0,0-.19-.61.83.83,0,0,0-.61-.19H191.1V21.5h4.34a.69.69,0,0,0,.8-.8V18.32a.85.85,0,0,0-.19-.61.83.83,0,0,0-.61-.19H191.1V15.81h6.14a.69.69,0,0,0,.8-.8v-2.6a.85.85,0,0,0-.19-.61.83.83,0,0,0-.61-.19Zm14.87,1.23L210.28,17l-.71,1.64,1.78.09a1.53,1.53,0,0,1,1.14.48,1.83,1.83,0,0,1,.42,1.31v5.83h-2.55v-3.9a2,2,0,0,0-.49-1.37,1.87,1.87,0,0,0-1.45-.62h-4.17v5.89h-2.58V12.84h2.58v5.91h2.92l.33-.73,2.29-5.18h2.32m1.08-1.23h-3.42a1.31,1.31,0,0,0-.69.16,1.11,1.11,0,0,0-.42.57l-2.29,5.18h-.89V12.41a.69.69,0,0,0-.8-.8h-3.44a.69.69,0,0,0-.8.8v14.4a.83.83,0,0,0,.19.61.85.85,0,0,0,.61.19h3.44a.85.85,0,0,0,.61-.19.83.83,0,0,0,.19-.61V21.72h2.94a.69.69,0,0,1,.53.2.79.79,0,0,1,.18.55v4.34a.83.83,0,0,0,.19.61.84.84,0,0,0,.61.19h3.42a.87.87,0,0,0,.61-.19.83.83,0,0,0,.19-.61V20.54a3,3,0,0,0-.75-2.14,2.76,2.76,0,0,0-2-.88l2.27-5.18c.1-.24.11-.42,0-.54a.58.58,0,0,0-.51-.19Z"/><path d="M8.69,40c-2.6,0-4.42-.75-5.26-2.16a11.36,11.36,0,0,1-1.34-5.92v-8.2l-1-.49a1.76,1.76,0,0,1-.86-.79A3.65,3.65,0,0,1,0,21V19.19a3.47,3.47,0,0,1,.21-1.44A1.82,1.82,0,0,1,1.08,17l1-.49V8.13a11.48,11.48,0,0,1,1.34-6C4.27.75,6.09,0,8.69,0H9.86V5.3H9.44A2.42,2.42,0,0,0,7.2,6.84a7.87,7.87,0,0,0-.54,3.21V16a6.18,6.18,0,0,1,0,.86.88.88,0,0,1-.2.07h0l-1.06.3a1.78,1.78,0,0,0-1.1.82,3.76,3.76,0,0,0-.52,2.08,3.74,3.74,0,0,0,.52,2.08A1.82,1.82,0,0,0,5.32,23l1.07.3h0a.88.88,0,0,1,.2.07,6.31,6.31,0,0,1,0,.86v5.81a7.87,7.87,0,0,0,.54,3.21A2.42,2.42,0,0,0,9.44,34.8h.42V40Z"/><path d="M41.29,40V34.8h.42A2.41,2.41,0,0,0,44,33.25a7.79,7.79,0,0,0,.54-3.2V24.24a6.31,6.31,0,0,1,0-.86.88.88,0,0,1,.2-.07h0l1-.29a1.84,1.84,0,0,0,1.11-.82,3.78,3.78,0,0,0,.52-2.09A3.76,3.76,0,0,0,46.94,18a1.78,1.78,0,0,0-1.1-.82l-1.08-.31h0a.88.88,0,0,1-.2-.07,6.06,6.06,0,0,1,0-.86V10.05A7.87,7.87,0,0,0,44,6.84,2.42,2.42,0,0,0,41.71,5.3h-.42V0h1.17c2.6,0,4.42.75,5.26,2.16a11.48,11.48,0,0,1,1.34,6v8.35l1,.49a1.87,1.87,0,0,1,.87.78,3.47,3.47,0,0,1,.21,1.44V21a3.65,3.65,0,0,1-.22,1.48,1.76,1.76,0,0,1-.86.79l-1,.49v8.2a11.36,11.36,0,0,1-1.34,5.92C46.88,39.25,45.06,40,42.46,40Z"/><path d="M38.76,19.4a5,5,0,0,0-2.59-1l-3.4-.46a.62.62,0,0,1-.46-.23.83.83,0,0,1-.16-.5.78.78,0,0,1,.16-.49.57.57,0,0,1,.46-.2h5.32a.71.71,0,0,0,.83-.82V12.93a.86.86,0,0,0-.2-.63.91.91,0,0,0-.63-.19H31.7a5.28,5.28,0,0,0-3.47,1,3.64,3.64,0,0,0-1.26,3v2.4a3.41,3.41,0,0,0,1,2.74,4.94,4.94,0,0,0,2.57,1.05l3.43.48a.6.6,0,0,1,.44.21.88.88,0,0,1,.15.57.75.75,0,0,1-.15.47.55.55,0,0,1-.44.19H27.79a.7.7,0,0,0-.82.82v2.67a.71.71,0,0,0,.82.83H35a5.33,5.33,0,0,0,3.46-1,3.63,3.63,0,0,0,1.27-3v-2.4A3.41,3.41,0,0,0,38.76,19.4Zm-1.19,4.88a2.51,2.51,0,0,1-.78,1.89,2.92,2.92,0,0,1-2.08.74h-6V26h6a2,2,0,0,0,1.46-.49,1.65,1.65,0,0,0,.53-1.26V23a1.84,1.84,0,0,0-.29-1.25,1.69,1.69,0,0,0-.85-.44l-4.82-1a2.27,2.27,0,0,1-1.13-.55,2,2,0,0,1-.47-1.53V16.33a2.27,2.27,0,0,1,.74-1.74,2.76,2.76,0,0,1,1.91-.66h5.39v.87H31.79a1.87,1.87,0,0,0-1.31.44A1.4,1.4,0,0,0,30,16.33V18.2c0,.55.12.79.23.89a1.12,1.12,0,0,0,.67.32l4.83,1a2.38,2.38,0,0,1,1.29.68A2.58,2.58,0,0,1,37.57,23ZM21.86,15.55A2.2,2.2,0,0,0,21,15a5.23,5.23,0,0,0-1.64-.21h-5V26h5a5.39,5.39,0,0,0,1.67-.2,2.24,2.24,0,0,0,.91-.51,1.61,1.61,0,0,0,.41-.76,5.27,5.27,0,0,0,.11-1.08V17.43a4.73,4.73,0,0,0-.12-1.09A1.69,1.69,0,0,0,21.86,15.55Zm-1.59,7.66a1.19,1.19,0,0,1-.26.84,1.1,1.1,0,0,1-.81.27H16.48V16.56H19.2a1.14,1.14,0,0,1,.81.26,1.16,1.16,0,0,1,.26.83Zm3.7-10a6.59,6.59,0,0,0-4.24-1.14H12a.88.88,0,0,0-.62.19.86.86,0,0,0-.2.63v14.8a.86.86,0,0,0,.2.63.84.84,0,0,0,.62.2h7.7A6.52,6.52,0,0,0,24,27.41a4.29,4.29,0,0,0,1.38-3.51V16.77A4.31,4.31,0,0,0,24,13.25Zm-.68,10.23a6,6,0,0,1-.13,1.3,2.42,2.42,0,0,1-.6,1.14,2.92,2.92,0,0,1-1.25.73,6.56,6.56,0,0,1-2,.26H13.46v-13h5.85a6.12,6.12,0,0,1,2,.27,2.91,2.91,0,0,1,1.24.76,2.45,2.45,0,0,1,.6,1.15,5.56,5.56,0,0,1,.15,1.32Z"/></svg>