<svg id="Layer_1" data-name="Layer 1" xmlns="http://www.w3.org/2000/svg" viewBox="0 0 256 256"><defs><style>.cls-1{fill:#fff;}</style></defs><title>ssui-square</title><rect class="cls-1" width="256" height="256"/><path d="M239.77,16.54V239.77H16.54V16.54H239.77M256.31,0H0V256.31H256.31V0ZM198.22,73.06q-4.82-3.81-12.64-4.87l-16.66-2.12A3,3,0,0,1,166.68,65a3.55,3.55,0,0,1-.78-2.33,3.35,3.35,0,0,1,.78-2.27,2.82,2.82,0,0,1,2.24-.9H195a4.32,4.32,0,0,0,3.07-.91,3.86,3.86,0,0,0,.95-2.91V43.09a3.9,3.9,0,0,0-.95-2.92,4.37,4.37,0,0,0-3.07-.9H163.67q-10.86,0-17,4.82t-6.15,13.83V69q0,8.89,4.75,12.71t12.58,4.87l16.77,2.23a3,3,0,0,1,2.18,1,4,4,0,0,1,.73,2.65,3.31,3.31,0,0,1-.73,2.17,2.63,2.63,0,0,1-2.18.9H144.54a4.37,4.37,0,0,0-3.07.9,3.88,3.88,0,0,0-.95,2.92v12.39a3.87,3.87,0,0,0,.95,2.91,4.37,4.37,0,0,0,3.07.9h35.34q10.74,0,16.94-4.82T203,96.9V85.78Q203,76.88,198.22,73.06Zm-6.35,22.25a10.84,10.84,0,0,1-3.67,8.39c-2.43,2.18-5.72,3.29-9.77,3.29H149.55v-3h28.88a10.9,10.9,0,0,0,7.51-2.44,7.83,7.83,0,0,0,2.75-6.22V89.17c0-3-.53-5.12-1.57-6.16a8.42,8.42,0,0,0-4.44-2.21L159.1,76.25a10.65,10.65,0,0,1-5.26-2.42c-1.46-1.3-2.17-3.49-2.17-6.7V58.45a9.73,9.73,0,0,1,3.47-7.67,13.3,13.3,0,0,1,9-3H190v3H164.11A10,10,0,0,0,157.32,53a6.83,6.83,0,0,0-2.46,5.43v8.68c0,2.19.42,3.71,1.26,4.5a6.59,6.59,0,0,0,3.59,1.64l23.62,4.56a11.64,11.64,0,0,1,6.07,3c1.66,1.62,2.47,4.33,2.47,8.31ZM58.08,115.54H93.42q10.74,0,16.94-4.82t6.21-13.82V85.78q0-8.9-4.81-12.72T99.12,68.19L82.46,66.07A3,3,0,0,1,80.22,65a3.55,3.55,0,0,1-.78-2.33,3.35,3.35,0,0,1,.78-2.27,2.82,2.82,0,0,1,2.24-.9h26.06a4.32,4.32,0,0,0,3.07-.91,3.86,3.86,0,0,0,1-2.91V43.09a3.9,3.9,0,0,0-1-2.92,4.37,4.37,0,0,0-3.07-.9H77.21q-10.84,0-17,4.82T54.06,57.92V69q0,8.89,4.75,12.71t12.58,4.87l16.77,2.23a3.07,3.07,0,0,1,2.19,1,4.05,4.05,0,0,1,.72,2.65,3.36,3.36,0,0,1-.72,2.17,2.66,2.66,0,0,1-2.19.9H58.08a4.37,4.37,0,0,0-3.07.9,3.88,3.88,0,0,0-.95,2.92v12.39a3.87,3.87,0,0,0,.95,2.91A4.37,4.37,0,0,0,58.08,115.54Zm5-11.57H92a10.9,10.9,0,0,0,7.51-2.44,7.83,7.83,0,0,0,2.75-6.22V89.17c0-3-.53-5.12-1.57-6.16a8.42,8.42,0,0,0-4.44-2.21L72.64,76.25a10.65,10.65,0,0,1-5.26-2.42c-1.46-1.3-2.17-3.49-2.17-6.7V58.45a9.73,9.73,0,0,1,3.47-7.67,13.3,13.3,0,0,1,9-3h25.86v3H77.65A10,10,0,0,0,70.86,53a6.86,6.86,0,0,0-2.46,5.43v8.68c0,2.2.42,3.71,1.26,4.5a6.59,6.59,0,0,0,3.59,1.64l23.62,4.56a11.64,11.64,0,0,1,6.07,3c1.66,1.62,2.47,4.33,2.47,8.31v6.14a10.84,10.84,0,0,1-3.67,8.39C99.31,105.88,96,107,92,107H63.09Zm53.22,32.41h-17a4.39,4.39,0,0,0-3.08.9,3.87,3.87,0,0,0-1,2.91V188.5a4.48,4.48,0,0,1-1.67,3.55q-1.68,1.42-7.61,1.42t-7.49-1.42a4.49,4.49,0,0,1-1.68-3.55V140.19a3.83,3.83,0,0,0-1-2.91,4.37,4.37,0,0,0-3.07-.9H55.25a4.37,4.37,0,0,0-3.07.9,3.83,3.83,0,0,0-1,2.91v52.44a24.62,24.62,0,0,0,1.51,8.84,14.82,14.82,0,0,0,5.36,6.78,29.66,29.66,0,0,0,10.57,4.4,76.15,76.15,0,0,0,17.11,1.59,76.15,76.15,0,0,0,17.11-1.59,29.53,29.53,0,0,0,10.56-4.4,14.78,14.78,0,0,0,5.37-6.78,24.62,24.62,0,0,0,1.51-8.84V140.19a3.87,3.87,0,0,0-1-2.91A4.37,4.37,0,0,0,116.31,136.38Zm-6.91,53.71a13.84,13.84,0,0,1-5,11C101,204,95,205.37,85.89,205.37s-15.1-1.39-18.42-4.23a13.94,13.94,0,0,1-5-11V144.93h3.19v45.16a10.82,10.82,0,0,0,4.06,8.84c2.74,2.27,8.17,3.42,16.15,3.42s13.44-1.15,16.21-3.42a10.76,10.76,0,0,0,4.12-8.84V144.93h3.18Zm86.19-53.71H148a4.37,4.37,0,0,0-3.07.9,3.83,3.83,0,0,0-.95,2.91V153a3.83,3.83,0,0,0,.95,2.91,4.37,4.37,0,0,0,3.07.9H159v35.6H148a4.37,4.37,0,0,0-3.07.9,3.83,3.83,0,0,0-.95,2.91v12.61a3.83,3.83,0,0,0,.95,2.91,4.37,4.37,0,0,0,3.07.9h47.64a4.39,4.39,0,0,0,3.08-.9,3.87,3.87,0,0,0,1-2.91V196.23a3.87,3.87,0,0,0-1-2.91,4.39,4.39,0,0,0-3.08-.9H184.74v-35.6h10.85a4.39,4.39,0,0,0,3.08-.9,3.87,3.87,0,0,0,1-2.91V140.19a3.87,3.87,0,0,0-1-2.91A4.39,4.39,0,0,0,195.59,136.38Zm-5,11.57h-17.1v53.13h17.1v3H153v-3h17.33V148H153v-3h37.62Z"/></svg>