<svg id="Layer_1" data-name="Layer 1" xmlns="http://www.w3.org/2000/svg" viewBox="0 0 961 128"><defs><style>.cls-1{fill:#fff;}</style></defs><title>ssui-horiz</title><path d="M191.3,91.25H166.72a2.4,2.4,0,0,1-2.8-2.8v-9.1a2.4,2.4,0,0,1,2.8-2.8h20.92a1.81,1.81,0,0,0,1.52-.66,2.53,2.53,0,0,0,.5-1.6,3,3,0,0,0-.5-1.94,2.05,2.05,0,0,0-1.52-.7L176,70a16.93,16.93,0,0,1-8.75-3.57q-3.3-2.81-3.3-9.34V48.94q0-6.61,4.27-10.16T180,35.25H201.8a3,3,0,0,1,2.14.66,2.93,2.93,0,0,1,.66,2.14V47.3a2.4,2.4,0,0,1-2.8,2.8H183.67a1.89,1.89,0,0,0-1.55.66,2.57,2.57,0,0,0-.55,1.68,2.74,2.74,0,0,0,.55,1.71,2.08,2.08,0,0,0,1.55.78l11.6,1.55a17.16,17.16,0,0,1,8.78,3.58q3.34,2.8,3.35,9.33v8.17q0,6.61-4.32,10.15T191.3,91.25Z"/><path d="M248.8,91.25H228.58a5,5,0,0,1-2.45-.54,3.6,3.6,0,0,1-1.52-2L217,69.63q-.7-1.71-1.17-3c-.31-.85-.57-1.67-.78-2.45a15.65,15.65,0,0,1-.42-2.45q-.12-1.27-.12-3.15V38.05a2.93,2.93,0,0,1,.66-2.14,3,3,0,0,1,2.14-.66h12.37a3.38,3.38,0,0,1,2.25.66,2.65,2.65,0,0,1,.78,2.14V59.51a7.51,7.51,0,0,0,.16,1.56,11.57,11.57,0,0,0,.46,1.63L237,73.59a2.29,2.29,0,0,0,.55,1,1.31,1.31,0,0,0,.93.28h.85a1.35,1.35,0,0,0,.94-.28,2.29,2.29,0,0,0,.54-1l3.66-11a13.34,13.34,0,0,0,.47-1.64,8.06,8.06,0,0,0,.15-1.55V38.05a2.93,2.93,0,0,1,.66-2.14,2.93,2.93,0,0,1,2.14-.66h12.21a2.93,2.93,0,0,1,2.14.66,2.93,2.93,0,0,1,.66,2.14V58.58c0,1.25,0,2.3-.11,3.15a14.56,14.56,0,0,1-.43,2.45c-.21.78-.47,1.6-.78,2.45s-.7,1.86-1.17,3l-7.62,19.05a3.6,3.6,0,0,1-1.52,2A5,5,0,0,1,248.8,91.25Z"/><path d="M310.4,91.25H274.31a2.4,2.4,0,0,1-2.8-2.8V38.05a2.93,2.93,0,0,1,.66-2.14,2.93,2.93,0,0,1,2.14-.66H310.4a2.93,2.93,0,0,1,2.14.66,2.93,2.93,0,0,1,.66,2.14v9.1a3,3,0,0,1-.66,2.14,2.93,2.93,0,0,1-2.14.66H288.93v6H304.1a2.41,2.41,0,0,1,2.8,2.81v8.32a2.4,2.4,0,0,1-2.8,2.8H288.93v6.69H310.4a2.4,2.4,0,0,1,2.8,2.8v9.1a2.4,2.4,0,0,1-2.8,2.8Z"/><path d="M364,91.25H324.4a2.4,2.4,0,0,1-2.8-2.8V38.05a2.93,2.93,0,0,1,.66-2.14,3,3,0,0,1,2.14-.66h12.06a3,3,0,0,1,2.14.66,2.93,2.93,0,0,1,.66,2.14v38.5h10.66V64a2.4,2.4,0,0,1,2.8-2.8H364a3,3,0,0,1,2.14.66A2.93,2.93,0,0,1,366.8,64v24.5a2.93,2.93,0,0,1-.66,2.14A3,3,0,0,1,364,91.25Z"/><path d="M397.45,91.25h-12.6a2.4,2.4,0,0,1-2.8-2.8V50.26H370.62a2.41,2.41,0,0,1-2.81-2.8V38.05a2.89,2.89,0,0,1,.67-2.14,2.93,2.93,0,0,1,2.14-.66h41.07a3,3,0,0,1,2.14.66,2.93,2.93,0,0,1,.66,2.14v9.41a2.4,2.4,0,0,1-2.8,2.8H400.25V88.45a2.4,2.4,0,0,1-2.8,2.8Z"/><path d="M461,91.25H424.9a2.4,2.4,0,0,1-2.8-2.8V38.05a2.93,2.93,0,0,1,.66-2.14,3,3,0,0,1,2.14-.66H461a2.93,2.93,0,0,1,2.14.66,2.93,2.93,0,0,1,.66,2.14v9.1a3,3,0,0,1-.66,2.14A2.93,2.93,0,0,1,461,50H439.52v6h15.17a2.41,2.41,0,0,1,2.8,2.81v8.32a2.4,2.4,0,0,1-2.8,2.8H439.52v6.69H461a2.4,2.4,0,0,1,2.8,2.8v9.1a2.4,2.4,0,0,1-2.8,2.8Z"/><path d="M516.45,91.25H491.87a2.4,2.4,0,0,1-2.8-2.8v-9.1a2.4,2.4,0,0,1,2.8-2.8H512.8a1.77,1.77,0,0,0,1.51-.66,2.53,2.53,0,0,0,.51-1.6,3,3,0,0,0-.51-1.94,2,2,0,0,0-1.51-.7L501.13,70a16.9,16.9,0,0,1-8.75-3.57q-3.31-2.81-3.31-9.34V48.94q0-6.61,4.28-10.16t11.82-3.53H527a2.93,2.93,0,0,1,2.14.66,2.93,2.93,0,0,1,.66,2.14V47.3a2.4,2.4,0,0,1-2.8,2.8H508.83a1.93,1.93,0,0,0-1.56.66,2.57,2.57,0,0,0-.54,1.68,2.73,2.73,0,0,0,.54,1.71,2.12,2.12,0,0,0,1.56.78l11.59,1.55a17.16,17.16,0,0,1,8.79,3.58q3.35,2.8,3.34,9.33v8.17q0,6.61-4.31,10.15T516.45,91.25Z"/><path d="M568.53,91.25h-12.6a2.4,2.4,0,0,1-2.8-2.8v-10l-11.9-16a15.49,15.49,0,0,1-2.38-4.2,18.54,18.54,0,0,1-.58-5.37V38.05a2.93,2.93,0,0,1,.66-2.14,3,3,0,0,1,2.14-.66h12a3,3,0,0,1,2.14.66,2.93,2.93,0,0,1,.66,2.14V50.8a15.63,15.63,0,0,0,.08,1.64,3.35,3.35,0,0,0,.62,1.63l3.58,5.6a2.92,2.92,0,0,0,.82,1,1.69,1.69,0,0,0,1,.31h.78a1.7,1.7,0,0,0,1.05-.31,2.92,2.92,0,0,0,.82-1l3.58-5.6a3.35,3.35,0,0,0,.62-1.63c0-.57.08-1.12.08-1.64V38.05a2.93,2.93,0,0,1,.66-2.14,2.93,2.93,0,0,1,2.14-.66h11.59a3,3,0,0,1,2.14.66,2.93,2.93,0,0,1,.66,2.14V53a17.62,17.62,0,0,1-.62,5.37,18,18,0,0,1-2.34,4.2l-11.82,16v9.88a2.4,2.4,0,0,1-2.8,2.8Z"/><path d="M621.07,91.25H596.49a2.4,2.4,0,0,1-2.8-2.8v-9.1a2.4,2.4,0,0,1,2.8-2.8h20.93a1.79,1.79,0,0,0,1.51-.66,2.53,2.53,0,0,0,.51-1.6,3,3,0,0,0-.51-1.94,2,2,0,0,0-1.51-.7L605.75,70A16.9,16.9,0,0,1,597,66.44q-3.32-2.81-3.31-9.34V48.94q0-6.61,4.28-10.16t11.82-3.53h21.78a2.93,2.93,0,0,1,2.14.66,2.93,2.93,0,0,1,.66,2.14V47.3a2.4,2.4,0,0,1-2.8,2.8H613.45a1.93,1.93,0,0,0-1.56.66,2.57,2.57,0,0,0-.54,1.68,2.73,2.73,0,0,0,.54,1.71,2.12,2.12,0,0,0,1.56.78L625,56.48a17.16,17.16,0,0,1,8.79,3.58q3.34,2.8,3.34,9.33v8.17q0,6.61-4.31,10.15T621.07,91.25Z"/><path d="M671.89,91.25h-12.6a2.4,2.4,0,0,1-2.8-2.8V50.26H645.05a2.41,2.41,0,0,1-2.8-2.8V38.05a2.41,2.41,0,0,1,2.8-2.8h41.07a2.93,2.93,0,0,1,2.14.66,2.93,2.93,0,0,1,.67,2.14v9.41a2.41,2.41,0,0,1-2.81,2.8H674.69V88.45a2.4,2.4,0,0,1-2.8,2.8Z"/><path d="M735.43,91.25H699.34a2.4,2.4,0,0,1-2.8-2.8V38.05a2.93,2.93,0,0,1,.66-2.14,2.93,2.93,0,0,1,2.14-.66h36.09a3,3,0,0,1,2.14.66,2.93,2.93,0,0,1,.66,2.14v9.1a2.4,2.4,0,0,1-2.8,2.8H714v6h15.17a2.41,2.41,0,0,1,2.8,2.81v8.32a2.4,2.4,0,0,1-2.8,2.8H714v6.69h21.47a2.4,2.4,0,0,1,2.8,2.8v9.1a2.4,2.4,0,0,1-2.8,2.8Z"/><path d="M761,91.25H749.43a2.4,2.4,0,0,1-2.8-2.8V38.05a2.93,2.93,0,0,1,.66-2.14,3,3,0,0,1,2.14-.66H762a3.71,3.71,0,0,1,2.07.54,5,5,0,0,1,1.51,1.79l7,12.68a6,6,0,0,0,.67,1,.89.89,0,0,0,.73.31h.7a.92.92,0,0,0,.74-.31,6.79,6.79,0,0,0,.66-1L783,37.58a5,5,0,0,1,1.51-1.79,3.68,3.68,0,0,1,2.07-.54h12.6a3,3,0,0,1,2.14.66,3,3,0,0,1,.66,2.14v50.4a2.4,2.4,0,0,1-2.8,2.8h-12a2.4,2.4,0,0,1-2.8-2.8V61.07l-4.59,8.48A4.2,4.2,0,0,1,775.65,72h-3.12a4.18,4.18,0,0,1-4.12-2.49l-4.59-8.48V88.45a2.4,2.4,0,0,1-2.8,2.8Z"/><path d="M877.85,76.55a19.29,19.29,0,0,1-1,6.49,10.82,10.82,0,0,1-3.74,5,19.93,19.93,0,0,1-7.35,3.23,61.1,61.1,0,0,1-23.8,0A19.93,19.93,0,0,1,834.57,88a10.82,10.82,0,0,1-3.74-5,19,19,0,0,1-1.05-6.49V38.05a2.41,2.41,0,0,1,2.8-2.8H844.8a3,3,0,0,1,2.14.66,3,3,0,0,1,.66,2.14V73.52a3.35,3.35,0,0,0,1.16,2.6q1.17,1,5.22,1c2.74,0,4.51-.35,5.28-1a3.36,3.36,0,0,0,1.17-2.6V38.05a2.93,2.93,0,0,1,.66-2.14,3,3,0,0,1,2.14-.66h11.82a2.93,2.93,0,0,1,2.14.66,2.93,2.93,0,0,1,.66,2.14Z"/><path d="M889.06,91.25a2.4,2.4,0,0,1-2.8-2.8V79.19a2.41,2.41,0,0,1,2.8-2.8h7.7V50.26h-7.7a2.4,2.4,0,0,1-2.8-2.8V38.05a2.93,2.93,0,0,1,.66-2.14,3,3,0,0,1,2.14-.66H922.2a2.93,2.93,0,0,1,2.14.66,2.93,2.93,0,0,1,.66,2.14v9.41a2.4,2.4,0,0,1-2.8,2.8h-7.55V76.39h7.55a2.41,2.41,0,0,1,2.8,2.8v9.26a2.4,2.4,0,0,1-2.8,2.8Z"/><rect class="cls-1" width="95.28" height="95.28"/><path d="M119.74,8.26V119.74H8.26V8.26H119.74M128,0H0V128H128V0ZM99,36.49a12.65,12.65,0,0,0-6.31-2.43L84.36,33a1.54,1.54,0,0,1-1.12-.53,1.8,1.8,0,0,1-.39-1.17,1.67,1.67,0,0,1,.39-1.13,1.41,1.41,0,0,1,1.12-.45h13a2.2,2.2,0,0,0,1.54-.45,2,2,0,0,0,.47-1.46V21.52a2,2,0,0,0-.47-1.46,2.2,2.2,0,0,0-1.54-.45H81.74c-3.62,0-6.45.81-8.49,2.41a8.25,8.25,0,0,0-3.07,6.9v5.56q0,4.44,2.37,6.35a12.46,12.46,0,0,0,6.28,2.43l8.38,1.11a1.57,1.57,0,0,1,1.09.48,2,2,0,0,1,.36,1.32,1.66,1.66,0,0,1-.36,1.08,1.33,1.33,0,0,1-1.09.45h-15a2.2,2.2,0,0,0-1.54.45,1.93,1.93,0,0,0-.47,1.46V55.8a1.9,1.9,0,0,0,.47,1.45,2.2,2.2,0,0,0,1.54.45H89.83q5.37,0,8.46-2.4a8.23,8.23,0,0,0,3.1-6.91V42.84C101.39,39.87,100.59,37.76,99,36.49ZM95.82,47.6A5.45,5.45,0,0,1,94,51.79a7.08,7.08,0,0,1-4.88,1.64H74.69V51.92H89.11a5.38,5.38,0,0,0,3.75-1.22,3.9,3.9,0,0,0,1.37-3.1V44.53a4.46,4.46,0,0,0-.78-3.08,4.28,4.28,0,0,0-2.22-1.1L79.45,38.08a5.27,5.27,0,0,1-2.62-1.21,4.27,4.27,0,0,1-1.08-3.34V29.19a4.84,4.84,0,0,1,1.73-3.83A6.63,6.63,0,0,1,82,23.89H94.87v1.5H82a5,5,0,0,0-3.39,1.09,3.41,3.41,0,0,0-1.23,2.71v4.34A3.06,3.06,0,0,0,78,35.77a3.21,3.21,0,0,0,1.79.82l11.79,2.28a5.85,5.85,0,0,1,3,1.51c.83.81,1.23,2.17,1.23,4.15ZM29,57.7H46.65q5.37,0,8.46-2.4a8.23,8.23,0,0,0,3.1-6.91V42.84c0-3-.8-5.08-2.4-6.35a12.65,12.65,0,0,0-6.31-2.43L41.18,33a1.54,1.54,0,0,1-1.12-.53,1.8,1.8,0,0,1-.39-1.17,1.67,1.67,0,0,1,.39-1.13,1.41,1.41,0,0,1,1.12-.45h13a2.2,2.2,0,0,0,1.54-.45,2,2,0,0,0,.47-1.46V21.52a2,2,0,0,0-.47-1.46,2.2,2.2,0,0,0-1.54-.45H38.56c-3.61,0-6.44.81-8.49,2.41A8.25,8.25,0,0,0,27,28.92v5.56q0,4.44,2.37,6.35a12.5,12.5,0,0,0,6.28,2.43L44,44.37a1.55,1.55,0,0,1,1.09.48,2,2,0,0,1,.36,1.32,1.66,1.66,0,0,1-.36,1.08A1.32,1.32,0,0,1,44,47.7H29a2.2,2.2,0,0,0-1.54.45A2,2,0,0,0,27,49.61V55.8a1.94,1.94,0,0,0,.47,1.45A2.2,2.2,0,0,0,29,57.7Zm2.5-5.78H45.93a5.38,5.38,0,0,0,3.75-1.22,3.9,3.9,0,0,0,1.37-3.1V44.53a4.46,4.46,0,0,0-.78-3.08,4.24,4.24,0,0,0-2.22-1.1L36.28,38.08a5.3,5.3,0,0,1-2.63-1.21,4.27,4.27,0,0,1-1.08-3.34V29.19a4.84,4.84,0,0,1,1.73-3.83,6.63,6.63,0,0,1,4.48-1.47H51.69v1.5H38.78a5,5,0,0,0-3.39,1.09,3.41,3.41,0,0,0-1.23,2.71v4.34a3.06,3.06,0,0,0,.63,2.24,3.21,3.21,0,0,0,1.79.82l11.8,2.28a5.86,5.86,0,0,1,3,1.51c.83.81,1.23,2.17,1.23,4.15V47.6a5.41,5.41,0,0,1-1.83,4.19,7,7,0,0,1-4.88,1.64H31.51ZM58.08,68.11H49.6a2.2,2.2,0,0,0-1.54.45A1.9,1.9,0,0,0,47.58,70V94.14a2.23,2.23,0,0,1-.83,1.77c-.56.47-1.83.71-3.8.71s-3.18-.24-3.74-.71a2.24,2.24,0,0,1-.84-1.77V70a1.94,1.94,0,0,0-.47-1.45,2.2,2.2,0,0,0-1.54-.45H27.59a2.17,2.17,0,0,0-1.53.45A1.9,1.9,0,0,0,25.58,70V96.2a12.24,12.24,0,0,0,.76,4.42A7.36,7.36,0,0,0,29,104a14.62,14.62,0,0,0,5.27,2.2,38.12,38.12,0,0,0,8.55.79,38,38,0,0,0,8.54-.79,14.67,14.67,0,0,0,5.28-2.2,7.42,7.42,0,0,0,2.68-3.38,12.46,12.46,0,0,0,.75-4.42V70a1.9,1.9,0,0,0-.47-1.45A2.2,2.2,0,0,0,58.08,68.11ZM54.64,94.93a6.92,6.92,0,0,1-2.52,5.52c-1.68,1.42-4.7,2.11-9.23,2.11s-7.54-.69-9.19-2.11a7,7,0,0,1-2.49-5.52V72.38H32.8V94.93a5.4,5.4,0,0,0,2,4.42c1.37,1.13,4.08,1.7,8.06,1.7s6.71-.57,8.1-1.7a5.39,5.39,0,0,0,2-4.42V72.38h1.6Zm43-26.82H73.89a2.2,2.2,0,0,0-1.54.45A1.94,1.94,0,0,0,71.88,70v6.4a2,2,0,0,0,.47,1.46,2.2,2.2,0,0,0,1.54.45h5.53V96.09H73.89a2.2,2.2,0,0,0-1.54.45A2,2,0,0,0,71.88,98v6.29a2,2,0,0,0,.47,1.46,2.2,2.2,0,0,0,1.54.45H97.68a2.15,2.15,0,0,0,1.53-.45,1.93,1.93,0,0,0,.48-1.46V98a1.93,1.93,0,0,0-.48-1.46,2.15,2.15,0,0,0-1.53-.45H92.26V78.32h5.42a2.15,2.15,0,0,0,1.53-.45,1.93,1.93,0,0,0,.48-1.46V70a1.9,1.9,0,0,0-.48-1.45A2.15,2.15,0,0,0,97.68,68.11Zm-2.5,5.78H86.63v26.53h8.55v1.5H76.39v-1.5H85V73.89H76.39V72.38H95.18Z"/></svg>