<svg id="Layer_1" data-name="Layer 1" xmlns="http://www.w3.org/2000/svg" viewBox="0 0 256 256"><title>ds-square</title><path d="M114.39,97.74a14,14,0,0,0-3.3-6.32,16.88,16.88,0,0,0-6.92-4.21,36.13,36.13,0,0,0-11.61-1.56H58.49v75.93H92.56a38.15,38.15,0,0,0,11.67-1.48,16.63,16.63,0,0,0,7-4.07,12.88,12.88,0,0,0,3.23-6.19,35.75,35.75,0,0,0,.77-7.59V105.41A33.58,33.58,0,0,0,114.39,97.74ZM113,142.25a30.52,30.52,0,0,1-.75,6.92,11.3,11.3,0,0,1-2.88,5.36,14.89,14.89,0,0,1-6.15,3.5,35.81,35.81,0,0,1-10.64,1.3H60.75V87.91H92.56a33.5,33.5,0,0,1,10.5,1.37,14.87,14.87,0,0,1,6.14,3.64,12.3,12.3,0,0,1,3,5.51,29.09,29.09,0,0,1,.82,7Zm-21.11,6.39H74.08V98.88H91.87a7.93,7.93,0,0,1,5.81,2c1.31,1.31,2,3.31,2,6v33.78c0,2.64-.65,4.66-2,6A7.75,7.75,0,0,1,91.87,148.64Zm-15.29-2.5H91.87a5.4,5.4,0,0,0,4-1.29,6.05,6.05,0,0,0,1.25-4.27V106.8c0-2-.41-3.37-1.23-4.19a5.59,5.59,0,0,0-4-1.23H76.58Zm127.3,1a13.76,13.76,0,0,1-4.31,10.39c-2.84,2.71-6.73,4.08-11.55,4.08H153v-2.25H188c4.13,0,7.47-1.16,9.92-3.43a11.51,11.51,0,0,0,3.68-8.79v-8.06c0-4.22-.73-7.14-2.17-8.67a11.24,11.24,0,0,0-6-3.14l-29.33-6a12.13,12.13,0,0,1-6.12-3c-1.61-1.52-2.43-4.27-2.43-8.17V98.74a12.23,12.23,0,0,1,4-9.43c2.66-2.42,6.22-3.66,10.58-3.66h31.29v2.26H170.23a12.86,12.86,0,0,0-9,3.08,10.12,10.12,0,0,0-3.34,7.75v11.4c0,3.11.61,5.3,1.82,6.5A8.9,8.9,0,0,0,164.6,119l29.34,6a13.33,13.33,0,0,1,7.11,3.74c1.88,1.93,2.83,5.4,2.83,10.31ZM121.7,79.05h0c-5.81-4.81-14.76-7.24-26.58-7.24H48.27A9.06,9.06,0,0,0,46,72.1L17.65,16,15.42,17.1,43.73,73.23l-.16.13A6.4,6.4,0,0,0,42,78.06v90.08a6.73,6.73,0,0,0,1.29,4.38L15.38,239l2.31,1,27.73-66a8.72,8.72,0,0,0,2.85.43H95.12c11.83,0,20.77-2.43,26.58-7.23s8.86-12.39,8.86-22.37V101.42C130.56,91.44,127.58,83.91,121.7,79.05Zm6.36,65.74c0,9.2-2.67,16.08-8,20.44s-13.76,6.66-25,6.66H48.27a4.17,4.17,0,0,1-2.94-.81,4.15,4.15,0,0,1-.81-2.94V78.06a4.12,4.12,0,0,1,.81-2.93,4.2,4.2,0,0,1,2.94-.82H95.12c11.23,0,19.63,2.24,25,6.66s8,11.25,8,20.45Zm113.05,95-28.86-72.45c5-4.43,7.6-10.68,7.6-18.61v-14.6c0-8.13-2.16-14.07-6.42-17.64h0c-4.15-3.47-9.65-5.71-16.35-6.67L176.3,107a2.41,2.41,0,0,1-1.89-.91,3.56,3.56,0,0,1-.71-2.29,3.3,3.3,0,0,1,.69-2.19,2.07,2.07,0,0,1,1.81-.73h32.39a5.49,5.49,0,0,0,6.25-6.25V78.06a7.23,7.23,0,0,0-1-4l27.23-57.58-2.26-1.07-27,57a7.91,7.91,0,0,0-3.27-.62H169.67c-9.24,0-16.62,2.22-21.93,6.61s-8.09,10.88-8.09,19.1v14.6c0,8.13,2.13,14.07,6.35,17.63s9.57,5.73,16.27,6.68l20.93,2.93a2.51,2.51,0,0,1,1.83.79,4.42,4.42,0,0,1,.63,2.69,3.34,3.34,0,0,1-.65,2.09,1.92,1.92,0,0,1-1.72.69H145.9a5.5,5.5,0,0,0-6.25,6.26v16.26a5.49,5.49,0,0,0,6.25,6.25h43.93c8.34,0,15.17-1.87,20.36-5.51l28.6,71.79ZM145.9,171.89a3.09,3.09,0,0,1-3.75-3.75V151.88a3.1,3.1,0,0,1,3.75-3.76h37.39a4.45,4.45,0,0,0,3.71-1.67,5.8,5.8,0,0,0,1.16-3.61,6.59,6.59,0,0,0-1.19-4.27,4.81,4.81,0,0,0-3.5-1.69L162.62,134c-6.22-.89-11.27-2.94-15-6.11s-5.46-8.37-5.46-15.73V97.52c0-7.55,2.35-13.17,7.19-17.17s11.68-6,20.33-6h38.92a4.22,4.22,0,0,1,2.94.81,4.25,4.25,0,0,1,.81,2.94V94.61a3.09,3.09,0,0,1-3.75,3.75H176.2a4.58,4.58,0,0,0-3.74,1.64,5.73,5.73,0,0,0-1.26,3.78,6.09,6.09,0,0,0,1.24,3.83,4.83,4.83,0,0,0,3.6,1.86l20.7,2.78c6.22.88,11.3,2.94,15.08,6.11s5.53,8.36,5.53,15.72v14.6c0,7.55-2.37,13.17-7.26,17.17s-11.71,6-20.26,6ZM246.35,9.65H9.65v236.7h236.7Zm-6.58,230.12H16.54V16.54H239.77ZM0,0V256.31H256.31V0ZM251.35,251.35H4.65V4.65h246.7Z"/></svg>