<svg id="Layer_1" data-name="Layer 1" xmlns="http://www.w3.org/2000/svg" viewBox="0 0 360 230"><title>ds-vert</title><path d="M21.72,227.92h-18a2,2,0,0,1-1.47-.45A2,2,0,0,1,1.82,226V191.41A2,2,0,0,1,2.27,190a2,2,0,0,1,1.47-.46h18q6.68,0,9.9,2.67c2.16,1.78,3.23,4.52,3.23,8.22V217c0,3.7-1.07,6.44-3.23,8.22S26.17,227.92,21.72,227.92Zm-7.79-28.23v18.14h6.35a2.51,2.51,0,0,0,1.9-.64,2.74,2.74,0,0,0,.61-2v-13a2.67,2.67,0,0,0-.61-1.95,2.58,2.58,0,0,0-1.9-.61Z"/><path d="M67.62,227.92H42.86A1.64,1.64,0,0,1,40.94,226V191.41a1.65,1.65,0,0,1,1.92-1.92H67.62a1.65,1.65,0,0,1,1.92,1.92v6.25a2.05,2.05,0,0,1-.45,1.47,2,2,0,0,1-1.47.45H52.89v4.11H63.3a1.64,1.64,0,0,1,1.92,1.92v5.71a2,2,0,0,1-.45,1.47,2.05,2.05,0,0,1-1.47.45H52.89v4.59H67.62a2,2,0,0,1,1.47.46,2,2,0,0,1,.45,1.46V226a1.64,1.64,0,0,1-1.92,1.92Z"/><path d="M93.63,227.92H76.77A1.64,1.64,0,0,1,74.85,226v-6.25a2,2,0,0,1,.45-1.46,2,2,0,0,1,1.47-.46H91.13a1.23,1.23,0,0,0,1-.45,1.75,1.75,0,0,0,.34-1.09,2.13,2.13,0,0,0-.34-1.34,1.44,1.44,0,0,0-1-.48l-8-1.12a11.56,11.56,0,0,1-6-2.45c-1.52-1.29-2.27-3.42-2.27-6.41v-5.6a8.55,8.55,0,0,1,2.93-7c2-1.62,4.66-2.43,8.12-2.43h14.94a1.65,1.65,0,0,1,1.92,1.92v6.36a2,2,0,0,1-.45,1.46,2,2,0,0,1-1.47.46H88.4a1.3,1.3,0,0,0-1.06.45,1.75,1.75,0,0,0-.38,1.15,1.85,1.85,0,0,0,.38,1.17,1.43,1.43,0,0,0,1.06.54l8,1.06a11.83,11.83,0,0,1,6,2.46q2.3,1.92,2.29,6.4v5.61a8.47,8.47,0,0,1-3,7Q98.77,227.92,93.63,227.92Z"/><path d="M111.73,227.92a1.64,1.64,0,0,1-1.92-1.92v-6.35a1.64,1.64,0,0,1,1.92-1.92H117V199.79h-5.28a1.64,1.64,0,0,1-1.92-1.92v-6.46a1.65,1.65,0,0,1,1.92-1.92h22.73a1.66,1.66,0,0,1,1.93,1.92v6.46a1.65,1.65,0,0,1-1.93,1.92h-5.17v17.94h5.17a1.65,1.65,0,0,1,1.93,1.92V226a1.65,1.65,0,0,1-1.93,1.92Z"/><path d="M171.94,227.92H155.12q-6.66,0-9.9-2.67T142,217V200.38q0-5.55,3.23-8.22t9.9-2.67h13.35a2,2,0,0,1,1.46.46,2,2,0,0,1,.46,1.46v6.46a2,2,0,0,1-.46,1.47,2,2,0,0,1-1.46.45h-11.1a3.8,3.8,0,0,0-2.46.67,2.47,2.47,0,0,0-.8,2v12.76a2.74,2.74,0,0,0,.61,2,2.44,2.44,0,0,0,1.84.64h5.18v-8.32a2,2,0,0,1,.46-1.47,2,2,0,0,1,1.46-.45h8.28a2,2,0,0,1,1.46.45,2,2,0,0,1,.46,1.47V226a1.65,1.65,0,0,1-1.92,1.92Z"/><path d="M189.68,227.92h-8a2,2,0,0,1-1.47-.45,2,2,0,0,1-.46-1.47V191.41a2,2,0,0,1,.46-1.46,2,2,0,0,1,1.47-.46h5.55a4.31,4.31,0,0,1,1.73.32,4.39,4.39,0,0,1,1.42,1.12l10.35,11.85V191.41a1.65,1.65,0,0,1,1.92-1.92h8a1.66,1.66,0,0,1,1.92,1.92V226a2,2,0,0,1-.46,1.47,2,2,0,0,1-1.46.45h-8a1.64,1.64,0,0,1-1.92-1.92v-6.57l-9.13-11V226a1.64,1.64,0,0,1-1.92,1.92Z"/><path d="M244.36,191.49v6.2H232a3.31,3.31,0,0,0-2.61,1.18,3.72,3.72,0,0,0-.83,2.42,3.87,3.87,0,0,0,.79,2.4,3.36,3.36,0,0,0,2.43,1.29l7.89,1.06a10,10,0,0,1,5,2c1,.88,1.58,2.52,1.58,4.87v5.61a6.57,6.57,0,0,1-2.23,5.42,10.55,10.55,0,0,1-6.82,2H220.44v-6.09h14.28a3.24,3.24,0,0,0,2.63-1.23,3.81,3.81,0,0,0,.76-2.31,4,4,0,0,0-.8-2.6,3.37,3.37,0,0,0-2.36-1.21L227,211.37a9.76,9.76,0,0,1-5-2c-1-.88-1.56-2.52-1.56-4.88v-5.6a6.61,6.61,0,0,1,2.21-5.43c1.58-1.3,3.88-2,6.84-2h14.87m.07-2H229.49c-3.45,0-6.16.81-8.11,2.43a8.52,8.52,0,0,0-2.94,7v5.6c0,3,.76,5.12,2.27,6.41a11.56,11.56,0,0,0,6,2.45l8,1.12a1.44,1.44,0,0,1,1,.48,2.13,2.13,0,0,1,.35,1.34,1.76,1.76,0,0,1-.35,1.09,1.23,1.23,0,0,1-1,.45H220.36a1.65,1.65,0,0,0-1.92,1.92V226a1.64,1.64,0,0,0,1.92,1.92h16.87c3.41,0,6.11-.81,8.08-2.43a8.48,8.48,0,0,0,3-7v-5.61q0-4.48-2.3-6.4a11.83,11.83,0,0,0-6-2.46L232,203a1.45,1.45,0,0,1-1.07-.54,1.84,1.84,0,0,1-.37-1.17,1.75,1.75,0,0,1,.37-1.15,1.32,1.32,0,0,1,1.07-.45h12.43a2,2,0,0,0,1.47-.46,2,2,0,0,0,.46-1.46v-6.36a1.66,1.66,0,0,0-1.93-1.92Z"/><path d="M272.06,191.49c4.18,0,7.1.78,8.46,2.24a8.65,8.65,0,0,1,2.14,6.17v6.83a8.63,8.63,0,0,1-2.14,6.17c-1.36,1.46-4.28,2.24-8.46,2.24h-8.14v10.78h-8.11V191.49h16.25m-8.24,18h6.8a4,4,0,0,0,3.75-1.77,5.49,5.49,0,0,0,.76-2.84v-2.83a5.46,5.46,0,0,0-.77-2.85,4,4,0,0,0-3.74-1.77h-6.8v12.06m8.24-20H255.73a1.65,1.65,0,0,0-1.92,1.92V226a1.64,1.64,0,0,0,1.92,1.92H264a1.64,1.64,0,0,0,1.92-1.92v-8.86h6.14q7.26,0,9.93-2.88a10.63,10.63,0,0,0,2.67-7.53V199.9a10.67,10.67,0,0,0-2.67-7.53q-2.67-2.88-9.93-2.88Zm-6.24,18v-8.06h4.8a2.2,2.2,0,0,1,2,.8,3.48,3.48,0,0,1,.48,1.82v2.83a3.45,3.45,0,0,1-.48,1.81c-.32.54-1,.8-2,.8Z"/><path d="M316.67,191.49v6.09H300v8.11h12.33v5.55H300v8.59h16.65v6.09h-24.6V191.49h24.6m.08-2H292a1.65,1.65,0,0,0-1.92,1.92V226a1.64,1.64,0,0,0,1.92,1.92h24.76a1.64,1.64,0,0,0,1.92-1.92v-6.25a1.65,1.65,0,0,0-1.92-1.92H302v-4.59h10.41a2,2,0,0,0,1.46-.45,2,2,0,0,0,.46-1.47v-5.71a1.65,1.65,0,0,0-1.92-1.92H302v-4.11h14.73a1.64,1.64,0,0,0,1.92-1.92v-6.25a2,2,0,0,0-.45-1.46,2,2,0,0,0-1.47-.46Z"/><path d="M354,191.49l-5,11.4-1.16,2.64,2.88.16a4.7,4.7,0,0,1,3.41,1.46,5.37,5.37,0,0,1,1.27,3.8v15H347.3V215.59a3.87,3.87,0,0,0-.93-2.66,3.55,3.55,0,0,0-2.77-1.15h-9.05v14.14h-8.11V191.49h8.11v14.2H340l.52-1.19,5.5-12.44,0,0,0,0a1,1,0,0,1,.21-.39h0a1.16,1.16,0,0,1,.59-.1H354m1.11-2h-8.22a3.1,3.1,0,0,0-1.65.4,2.68,2.68,0,0,0-1,1.36l-5.5,12.44h-2.13V191.41a2,2,0,0,0-.45-1.46,2.05,2.05,0,0,0-1.47-.46h-8.27a1.65,1.65,0,0,0-1.92,1.92V226a1.64,1.64,0,0,0,1.92,1.92h8.27a1.64,1.64,0,0,0,1.92-1.92V213.78h7.05a1.64,1.64,0,0,1,1.28.48,2,2,0,0,1,.42,1.33V226a2,2,0,0,0,.46,1.47,2,2,0,0,0,1.47.45h8.21a1.65,1.65,0,0,0,1.93-1.92V211a7.32,7.32,0,0,0-1.79-5.15,6.72,6.72,0,0,0-4.78-2.11l5.45-12.44a1.34,1.34,0,0,0,.05-1.3,1.44,1.44,0,0,0-1.23-.46Z"/><path d="M169.94,51.51a6.89,6.89,0,0,0-1.65-3.15,8.38,8.38,0,0,0-3.45-2.11,18.21,18.21,0,0,0-5.8-.78H142V83.39h17a19.24,19.24,0,0,0,5.83-.74,8.27,8.27,0,0,0,3.49-2A6.54,6.54,0,0,0,170,77.53a18.24,18.24,0,0,0,.38-3.79V55.34A16.78,16.78,0,0,0,169.94,51.51Zm-.7,22.23a15.13,15.13,0,0,1-.38,3.45,5.56,5.56,0,0,1-1.44,2.68,7.39,7.39,0,0,1-3.07,1.75,17.83,17.83,0,0,1-5.31.65H143.15V46.6H159a16.87,16.87,0,0,1,5.24.68,7.46,7.46,0,0,1,3.07,1.82,6.24,6.24,0,0,1,1.48,2.75,14.51,14.51,0,0,1,.41,3.49Zm-10.55,3.19h-8.88V52.08h8.88a4,4,0,0,1,2.91,1,4.06,4.06,0,0,1,1,3V72.9a4.21,4.21,0,0,1-1,3A3.89,3.89,0,0,1,158.69,76.93Zm-7.63-1.25h7.63a2.75,2.75,0,0,0,2-.64,3.06,3.06,0,0,0,.62-2.14V56a3,3,0,0,0-.61-2.09,2.8,2.8,0,0,0-2-.61h-7.63Zm63.57.49a6.89,6.89,0,0,1-2.15,5.19,8.06,8.06,0,0,1-5.77,2h-17.5V82.27h17.5a7,7,0,0,0,5-1.72,5.72,5.72,0,0,0,1.84-4.38v-4c0-2.11-.37-3.57-1.09-4.33a5.64,5.64,0,0,0-3-1.57l-14.64-3a6.07,6.07,0,0,1-3.06-1.48c-.8-.76-1.21-2.13-1.21-4.08V52a6.13,6.13,0,0,1,2-4.71,7.59,7.59,0,0,1,5.29-1.83h15.62V46.6H197.83a6.44,6.44,0,0,0-4.51,1.54A5.07,5.07,0,0,0,191.66,52V57.7a4.58,4.58,0,0,0,.9,3.25A4.53,4.53,0,0,0,195,62.14l14.65,3A6.72,6.72,0,0,1,213.22,67c.94,1,1.41,2.7,1.41,5.15Zm-41-34h0c-2.9-2.39-7.37-3.61-13.27-3.61h-23.4a5,5,0,0,0-1.15.14l-14.14-28-1.11.56,14.13,28-.08.06a3.23,3.23,0,0,0-.77,2.35v45a3.33,3.33,0,0,0,.64,2.18L120.5,122.06l1.15.48,13.85-33a4.28,4.28,0,0,0,1.42.22h23.4c5.9,0,10.37-1.22,13.27-3.61S178,80,178,75V53.35C178,48.36,176.53,44.6,173.59,42.17ZM176.77,75c0,4.6-1.34,8-4,10.21s-6.87,3.33-12.48,3.33h-23.4a2.1,2.1,0,0,1-1.47-.41,2,2,0,0,1-.4-1.46v-45a2.06,2.06,0,0,1,.4-1.46,2.1,2.1,0,0,1,1.47-.41h23.4c5.6,0,9.8,1.12,12.48,3.33s4,5.61,4,10.21Zm56.45,47.42L218.81,86.24c2.52-2.21,3.8-5.33,3.8-9.29V69.66c0-4.06-1.08-7-3.21-8.81h0a16.07,16.07,0,0,0-8.16-3.33l-10.38-1.4a1.22,1.22,0,0,1-1-.45,1.84,1.84,0,0,1-.35-1.14,1.66,1.66,0,0,1,.34-1.1,1.06,1.06,0,0,1,.91-.36H217a2.75,2.75,0,0,0,3.12-3.13V41.68a3.55,3.55,0,0,0-.5-2l13.6-28.76-1.13-.53L218.62,38.87a4,4,0,0,0-1.63-.31H197.55c-4.62,0-8.3,1.11-11,3.3s-4,5.43-4,9.54v7.29c0,4.06,1.07,7,3.18,8.81a15.73,15.73,0,0,0,8.12,3.33l10.45,1.46a1.28,1.28,0,0,1,.92.4,2.25,2.25,0,0,1,.31,1.34,1.66,1.66,0,0,1-.32,1,1,1,0,0,1-.86.34H185.68a2.75,2.75,0,0,0-3.13,3.12v8.13a3.17,3.17,0,0,0,.78,2.35,3.21,3.21,0,0,0,2.35.77h21.93A17.35,17.35,0,0,0,217.79,87l14.27,35.86ZM185.68,88.54a2.07,2.07,0,0,1-1.47-.41,2,2,0,0,1-.41-1.46V78.54a1.55,1.55,0,0,1,1.88-1.87h18.67a2.18,2.18,0,0,0,1.85-.84,2.84,2.84,0,0,0,.58-1.8,3.28,3.28,0,0,0-.59-2.13,2.45,2.45,0,0,0-1.75-.85L194,69.6a14.58,14.58,0,0,1-7.5-3.06c-1.81-1.53-2.73-4.17-2.73-7.85V51.4c0-3.77,1.18-6.58,3.59-8.58s5.84-3,10.16-3H217a2.11,2.11,0,0,1,1.46.4,2.1,2.1,0,0,1,.41,1.47v8.26A1.55,1.55,0,0,1,217,51.82H200.81a2.29,2.29,0,0,0-1.87.82,2.86,2.86,0,0,0-.63,1.89,3,3,0,0,0,.62,1.91,2.44,2.44,0,0,0,1.8.93l10.34,1.38a14.88,14.88,0,0,1,7.53,3.06c1.83,1.53,2.76,4.17,2.76,7.85V77c0,3.77-1.19,6.58-3.62,8.57s-5.85,3-10.13,3Zm50.16-81H117.64v118.2h118.2Zm-3.28,114.92H121.07V11H232.56ZM112.81,2.7v128h128V2.7ZM238.34,128.22H115.14V5h123.2Z"/></svg>