<svg id="Layer_1" data-name="Layer 1" xmlns="http://www.w3.org/2000/svg" viewBox="0 0 180 230"><title>ssui-vert</title><path d="M145.74,8.26V119.74H34.26V8.26H145.74M154,0H26V128H154V0ZM125,36.49a12.65,12.65,0,0,0-6.31-2.43L110.36,33a1.54,1.54,0,0,1-1.12-.53,1.8,1.8,0,0,1-.39-1.17,1.67,1.67,0,0,1,.39-1.13,1.41,1.41,0,0,1,1.12-.45h13a2.2,2.2,0,0,0,1.54-.45,2,2,0,0,0,.47-1.46V21.52a2,2,0,0,0-.47-1.46,2.2,2.2,0,0,0-1.54-.45H107.74c-3.62,0-6.45.81-8.49,2.41a8.25,8.25,0,0,0-3.07,6.9v5.56q0,4.44,2.37,6.35a12.46,12.46,0,0,0,6.28,2.43l8.38,1.11a1.57,1.57,0,0,1,1.09.48,2,2,0,0,1,.36,1.32,1.66,1.66,0,0,1-.36,1.08,1.33,1.33,0,0,1-1.09.45h-15a2.2,2.2,0,0,0-1.54.45,1.93,1.93,0,0,0-.47,1.46V55.8a1.9,1.9,0,0,0,.47,1.45,2.2,2.2,0,0,0,1.54.45h17.64q5.37,0,8.46-2.4a8.23,8.23,0,0,0,3.1-6.91V42.84C127.39,39.87,126.59,37.76,125,36.49ZM121.82,47.6A5.45,5.45,0,0,1,120,51.79a7.08,7.08,0,0,1-4.88,1.64H100.69V51.92h14.42a5.38,5.38,0,0,0,3.75-1.22,3.9,3.9,0,0,0,1.37-3.1V44.53a4.46,4.46,0,0,0-.78-3.08,4.28,4.28,0,0,0-2.22-1.1l-11.78-2.27a5.27,5.27,0,0,1-2.62-1.21,4.27,4.27,0,0,1-1.08-3.34V29.19a4.84,4.84,0,0,1,1.73-3.83A6.63,6.63,0,0,1,108,23.89h12.91v1.5H108a5,5,0,0,0-3.39,1.09,3.41,3.41,0,0,0-1.23,2.71v4.34a3.06,3.06,0,0,0,.63,2.24,3.21,3.21,0,0,0,1.79.82l11.79,2.28a5.85,5.85,0,0,1,3,1.51c.83.81,1.23,2.17,1.23,4.15ZM55,57.7H72.65q5.37,0,8.46-2.4a8.23,8.23,0,0,0,3.1-6.91V42.84c0-3-.8-5.08-2.4-6.35a12.65,12.65,0,0,0-6.31-2.43L67.18,33a1.54,1.54,0,0,1-1.12-.53,1.8,1.8,0,0,1-.39-1.17,1.67,1.67,0,0,1,.39-1.13,1.41,1.41,0,0,1,1.12-.45h13a2.2,2.2,0,0,0,1.54-.45,2,2,0,0,0,.47-1.46V21.52a2,2,0,0,0-.47-1.46,2.2,2.2,0,0,0-1.54-.45H64.56c-3.61,0-6.44.81-8.49,2.41A8.25,8.25,0,0,0,53,28.92v5.56q0,4.44,2.37,6.35a12.5,12.5,0,0,0,6.28,2.43L70,44.37a1.55,1.55,0,0,1,1.09.48,2,2,0,0,1,.36,1.32,1.66,1.66,0,0,1-.36,1.08A1.32,1.32,0,0,1,70,47.7H55a2.2,2.2,0,0,0-1.54.45A2,2,0,0,0,53,49.61V55.8a1.94,1.94,0,0,0,.47,1.45A2.2,2.2,0,0,0,55,57.7Zm2.5-5.78H71.93a5.38,5.38,0,0,0,3.75-1.22,3.9,3.9,0,0,0,1.37-3.1V44.53a4.46,4.46,0,0,0-.78-3.08,4.24,4.24,0,0,0-2.22-1.1L62.28,38.08a5.3,5.3,0,0,1-2.63-1.21,4.27,4.27,0,0,1-1.08-3.34V29.19a4.84,4.84,0,0,1,1.73-3.83,6.63,6.63,0,0,1,4.48-1.47H77.69v1.5H64.78a5,5,0,0,0-3.39,1.09,3.41,3.41,0,0,0-1.23,2.71v4.34a3.06,3.06,0,0,0,.63,2.24,3.21,3.21,0,0,0,1.79.82l11.8,2.28a5.86,5.86,0,0,1,3,1.51c.83.81,1.23,2.17,1.23,4.15V47.6a5.41,5.41,0,0,1-1.83,4.19,7,7,0,0,1-4.88,1.64H57.51ZM84.08,68.11H75.6a2.2,2.2,0,0,0-1.54.45A1.9,1.9,0,0,0,73.58,70V94.14a2.23,2.23,0,0,1-.83,1.77c-.56.47-1.83.71-3.8.71s-3.18-.24-3.74-.71a2.24,2.24,0,0,1-.84-1.77V70a1.94,1.94,0,0,0-.47-1.45,2.2,2.2,0,0,0-1.54-.45H53.59a2.17,2.17,0,0,0-1.53.45A1.9,1.9,0,0,0,51.58,70V96.2a12.24,12.24,0,0,0,.76,4.42A7.36,7.36,0,0,0,55,104a14.62,14.62,0,0,0,5.27,2.2,38.12,38.12,0,0,0,8.55.79,38,38,0,0,0,8.54-.79,14.6,14.6,0,0,0,5.28-2.2,7.42,7.42,0,0,0,2.68-3.38,12.46,12.46,0,0,0,.75-4.42V70a1.9,1.9,0,0,0-.47-1.45A2.2,2.2,0,0,0,84.08,68.11ZM80.64,94.93a6.92,6.92,0,0,1-2.52,5.52c-1.68,1.42-4.7,2.11-9.23,2.11s-7.54-.69-9.19-2.11a7,7,0,0,1-2.49-5.52V72.38H58.8V94.93a5.4,5.4,0,0,0,2,4.42c1.37,1.13,4.08,1.7,8.06,1.7s6.71-.57,8.1-1.7A5.39,5.39,0,0,0,79,94.93V72.38h1.6Zm43-26.82H99.89a2.2,2.2,0,0,0-1.54.45A1.94,1.94,0,0,0,97.88,70v6.4a2,2,0,0,0,.47,1.46,2.2,2.2,0,0,0,1.54.45h5.53V96.09H99.89a2.2,2.2,0,0,0-1.54.45A2,2,0,0,0,97.88,98v6.29a2,2,0,0,0,.47,1.46,2.2,2.2,0,0,0,1.54.45h23.79a2.15,2.15,0,0,0,1.53-.45,1.93,1.93,0,0,0,.48-1.46V98a1.93,1.93,0,0,0-.48-1.46,2.15,2.15,0,0,0-1.53-.45h-5.42V78.32h5.42a2.15,2.15,0,0,0,1.53-.45,1.93,1.93,0,0,0,.48-1.46V70a1.9,1.9,0,0,0-.48-1.45A2.15,2.15,0,0,0,123.68,68.11Zm-2.5,5.78h-8.55v26.53h8.55v1.5H102.39v-1.5H111V73.89h-8.65V72.38h18.79Z"/><path d="M120,174.41h-6.34a1.36,1.36,0,0,0-1.58,1.58v7.09h-6V161.42a1.37,1.37,0,0,0-1.58-1.58H97.7a1.37,1.37,0,0,0-1.58,1.58v28.35A1.65,1.65,0,0,0,96.5,191a1.67,1.67,0,0,0,1.2.37H120a1.67,1.67,0,0,0,1.2-.37,1.65,1.65,0,0,0,.37-1.21V176a1.35,1.35,0,0,0-1.57-1.58Zm-2.48,13.5H100.4V163.29h1.43v23.19h14.23v-8.62h1.43Z"/><path d="M87.2,159.84H66.9a1.37,1.37,0,0,0-1.58,1.58v28.35a1.36,1.36,0,0,0,1.58,1.58H87.2a1.69,1.69,0,0,0,1.2-.37,1.65,1.65,0,0,0,.38-1.21v-5.12a1.35,1.35,0,0,0-1.58-1.57H75.12v-3.77h8.54a1.64,1.64,0,0,0,1.2-.37,1.61,1.61,0,0,0,.37-1.2v-4.68a1.67,1.67,0,0,0-.37-1.21,1.69,1.69,0,0,0-1.2-.37H75.12v-3.37H87.2a1.35,1.35,0,0,0,1.58-1.57v-5.12a1.37,1.37,0,0,0-1.58-1.58Zm-1.87,4.88H71v10H81.79v1.43H71v10.34h14.3v1.43H69.6V163.29H85.33Z"/><path d="M22.58,173.8a9.69,9.69,0,0,0-4.95-2l-6.52-.88a1.12,1.12,0,0,1-.87-.43,1.52,1.52,0,0,1-.31-1,1.42,1.42,0,0,1,.31-.94,1.07,1.07,0,0,1,.87-.37h10.2a1.64,1.64,0,0,0,1.2-.37,1.64,1.64,0,0,0,.37-1.2v-5.21a1.63,1.63,0,0,0-.37-1.2,1.64,1.64,0,0,0-1.2-.38H9.06a10.11,10.11,0,0,0-6.65,2A7,7,0,0,0,0,167.55v4.59q0,3.68,1.86,5.25a9.51,9.51,0,0,0,4.92,2l6.56.92a1.18,1.18,0,0,1,.86.39,1.75,1.75,0,0,1,.28,1.1,1.44,1.44,0,0,1-.28.9,1,1,0,0,1-.86.37H1.58a1.65,1.65,0,0,0-1.21.37,1.64,1.64,0,0,0-.37,1.2v5.12A1.65,1.65,0,0,0,.37,191a1.7,1.7,0,0,0,1.21.37H15.4a10.2,10.2,0,0,0,6.63-2,7,7,0,0,0,2.43-5.71v-4.6Q24.46,175.38,22.58,173.8ZM20.19,183a4.68,4.68,0,0,1-1.47,3.53,5.43,5.43,0,0,1-3.89,1.39H3.44v-1.43H14.83a4,4,0,0,0,2.88-1,3.23,3.23,0,0,0,1-2.5v-2.54a3.64,3.64,0,0,0-.58-2.48,3.12,3.12,0,0,0-1.69-.88l-9.23-1.88a4.19,4.19,0,0,1-2.1-1,3.77,3.77,0,0,1-.88-2.84v-3.59a4.21,4.21,0,0,1,1.39-3.23,5.11,5.11,0,0,1,3.57-1.24H19.44v1.43H9.23a3.64,3.64,0,0,0-2.59.87,2.8,2.8,0,0,0-.94,2.17v3.59a2.56,2.56,0,0,0,.47,1.79,2.42,2.42,0,0,0,1.35.65l9.25,1.89A4.54,4.54,0,0,1,19.19,177a4.91,4.91,0,0,1,1,3.5Z"/><path d="M178.42,168.11a1.35,1.35,0,0,0,1.58-1.57v-5.12a1.63,1.63,0,0,0-.37-1.2,1.65,1.65,0,0,0-1.21-.38h-20.3a1.64,1.64,0,0,0-1.2.38,1.63,1.63,0,0,0-.37,1.2v28.35a1.65,1.65,0,0,0,.37,1.21,1.69,1.69,0,0,0,1.2.37h20.3a1.7,1.7,0,0,0,1.21-.37,1.65,1.65,0,0,0,.37-1.21v-5.12a1.35,1.35,0,0,0-1.58-1.57H166.35v-3.77h8.53a1.35,1.35,0,0,0,1.58-1.57v-4.68a1.36,1.36,0,0,0-1.58-1.58h-8.53v-3.37Zm-5.41,6.6v1.43H162.25v10.34h14.31v1.43H160.82V163.29h15.74v1.43H162.25v10Z"/><path d="M56.18,159.84H49.31a1.37,1.37,0,0,0-1.58,1.58v12a4.37,4.37,0,0,1-.08.88,6.24,6.24,0,0,1-.27.92l-2.05,6.17A1.33,1.33,0,0,1,45,182a.79.79,0,0,1-.52.15H44a.8.8,0,0,1-.53-.15,1.33,1.33,0,0,1-.31-.59l-2-6.13a5.15,5.15,0,0,1-.26-.92,4.28,4.28,0,0,1-.09-.87V161.42a1.49,1.49,0,0,0-.44-1.2,1.89,1.89,0,0,0-1.27-.38h-7a1.64,1.64,0,0,0-1.2.38,1.63,1.63,0,0,0-.37,1.2V173a17.69,17.69,0,0,0,.07,1.77,7.65,7.65,0,0,0,.24,1.38c.11.44.26.9.43,1.38s.4,1,.66,1.68l4.29,10.72a2,2,0,0,0,.85,1.14,2.71,2.71,0,0,0,1.38.31H49.84a2.7,2.7,0,0,0,1.37-.31,2,2,0,0,0,.86-1.14l4.28-10.72q.4-1,.66-1.68c.18-.48.32-.94.44-1.38a9.92,9.92,0,0,0,.24-1.38q.06-.72.06-1.77V161.42a1.63,1.63,0,0,0-.37-1.2A1.64,1.64,0,0,0,56.18,159.84ZM53.4,173.23a16.73,16.73,0,0,1-.16,2.33,9.56,9.56,0,0,1-.58,2.11l-2.89,7a9.81,9.81,0,0,1-1.25,2.22,2.91,2.91,0,0,1-2.4,1H42.27a2.93,2.93,0,0,1-2.41-1,9.81,9.81,0,0,1-1.25-2.22l-2.89-7a9.16,9.16,0,0,1-.57-2.11,15.14,15.14,0,0,1-.16-2.33v-9.94h1.43v9.94a11.72,11.72,0,0,0,.17,2.09,8.78,8.78,0,0,0,.49,1.8l2.89,7a8.22,8.22,0,0,0,.93,1.81,1.57,1.57,0,0,0,1.37.56h3.85a1.55,1.55,0,0,0,1.36-.56,8.36,8.36,0,0,0,.93-1.8l2.89-7a8.51,8.51,0,0,0,.49-1.79,11.72,11.72,0,0,0,.17-2.09v-9.94H53.4Z"/><path d="M148.54,159.84h-23.1a1.35,1.35,0,0,0-1.57,1.58v5.29a1.65,1.65,0,0,0,.37,1.21,1.63,1.63,0,0,0,1.2.37h6.43v21.48a1.35,1.35,0,0,0,1.58,1.58h7.09a1.69,1.69,0,0,0,1.2-.37,1.65,1.65,0,0,0,.37-1.21V168.29h6.43a1.61,1.61,0,0,0,1.2-.37,1.65,1.65,0,0,0,.38-1.21v-5.29a1.37,1.37,0,0,0-1.58-1.58Zm-1.86,4.88h-9v23.19h-1.43V164.72h-9v-1.43h19.37Z"/><path d="M11.87,229.53H1.81a1.19,1.19,0,0,1-.87-.27,1.19,1.19,0,0,1-.27-.87v-3.73a1.19,1.19,0,0,1,.27-.87,1.19,1.19,0,0,1,.87-.27h8.56a.73.73,0,0,0,.62-.27,1,1,0,0,0,.21-.65,1.24,1.24,0,0,0-.21-.8.87.87,0,0,0-.62-.29l-4.77-.66A7,7,0,0,1,2,219.38a4.75,4.75,0,0,1-1.35-3.82v-3.34a5.08,5.08,0,0,1,1.75-4.15,7.31,7.31,0,0,1,4.83-1.45h8.91a1.2,1.2,0,0,1,.88.27,1.2,1.2,0,0,1,.27.88v3.78a1.2,1.2,0,0,1-.27.88,1.2,1.2,0,0,1-.88.27H8.75a.78.78,0,0,0-.64.27,1,1,0,0,0-.22.68,1.09,1.09,0,0,0,.22.7.82.82,0,0,0,.64.32l4.74.64a7.1,7.1,0,0,1,3.6,1.46,4.75,4.75,0,0,1,1.36,3.82v3.34a5.06,5.06,0,0,1-1.76,4.15A7.37,7.37,0,0,1,11.87,229.53Z"/><path d="M33.22,229.53H28.06a1,1,0,0,1-1.14-1.14v-4.08l-4.87-6.52a6.32,6.32,0,0,1-1-1.72,7.51,7.51,0,0,1-.24-2.19v-6.11A1,1,0,0,1,22,206.62h4.9A1,1,0,0,1,28,207.77V213q0,.31,0,.66a1.33,1.33,0,0,0,.26.67l1.46,2.29a1.38,1.38,0,0,0,.34.42.72.72,0,0,0,.42.12h.32a.73.73,0,0,0,.43-.12,1.38,1.38,0,0,0,.34-.42l1.46-2.29a1.43,1.43,0,0,0,.26-.67q0-.35,0-.66v-5.22a1,1,0,0,1,1.14-1.15h4.74a1,1,0,0,1,1.15,1.15v6.11a7.06,7.06,0,0,1-.26,2.19,6.75,6.75,0,0,1-.95,1.72l-4.84,6.56v4a1,1,0,0,1-1.14,1.14Z"/><path d="M54.66,229.53h-10a1.22,1.22,0,0,1-.88-.27,1.19,1.19,0,0,1-.27-.87v-3.73a1.19,1.19,0,0,1,.27-.87,1.22,1.22,0,0,1,.88-.27h8.56a.74.74,0,0,0,.62-.27,1,1,0,0,0,.21-.65,1.24,1.24,0,0,0-.21-.8.89.89,0,0,0-.62-.29l-4.77-.66a7,7,0,0,1-3.58-1.47,4.72,4.72,0,0,1-1.36-3.82v-3.34a5.11,5.11,0,0,1,1.75-4.15,7.36,7.36,0,0,1,4.84-1.45H59a1.19,1.19,0,0,1,.87.27,1.16,1.16,0,0,1,.28.88v3.78a1.16,1.16,0,0,1-.28.88,1.19,1.19,0,0,1-.87.27H51.55a.78.78,0,0,0-.64.27,1,1,0,0,0-.22.68,1.09,1.09,0,0,0,.22.7.82.82,0,0,0,.64.32l4.74.64a7,7,0,0,1,3.59,1.46,4.75,4.75,0,0,1,1.37,3.82v3.34a5.06,5.06,0,0,1-1.76,4.15A7.38,7.38,0,0,1,54.66,229.53Z"/><path d="M75.22,229.53H70.07a1,1,0,0,1-1.15-1.14V212.76H64.24a1,1,0,0,1-1.14-1.14v-3.85a1,1,0,0,1,1.14-1.15H81a1,1,0,0,1,1.15,1.15v3.85A1,1,0,0,1,81,212.76H76.37v15.63a1.19,1.19,0,0,1-.27.87A1.24,1.24,0,0,1,75.22,229.53Z"/><path d="M101.19,229.53H86.42a1,1,0,0,1-1.14-1.14V207.77a1,1,0,0,1,1.14-1.15h14.77a1,1,0,0,1,1.14,1.15v3.72a1.18,1.18,0,0,1-.27.87,1.15,1.15,0,0,1-.87.28H92.4v2.45h6.21a1,1,0,0,1,1.14,1.14v3.41a1,1,0,0,1-1.14,1.14H92.4v2.74h8.79a1,1,0,0,1,1.14,1.14v3.73a1,1,0,0,1-1.14,1.14Z"/><path d="M112,229.53h-4.74a1,1,0,0,1-1.14-1.14V207.77a1,1,0,0,1,1.14-1.15h5.12a1.6,1.6,0,0,1,.85.22,2.15,2.15,0,0,1,.62.74l2.86,5.18a4,4,0,0,0,.27.42.41.41,0,0,0,.3.12h.29a.38.38,0,0,0,.3-.12,2.19,2.19,0,0,0,.27-.42l2.84-5.18a2,2,0,0,1,.62-.74,1.54,1.54,0,0,1,.84-.22h5.15a1,1,0,0,1,1.15,1.15v20.62a1,1,0,0,1-1.15,1.14h-4.9a1,1,0,0,1-1.14-1.14v-11.2l-1.88,3.46a1.89,1.89,0,0,1-.68.78,1.94,1.94,0,0,1-1,.24h-1.27a1.9,1.9,0,0,1-1-.24,1.83,1.83,0,0,1-.68-.78l-1.88-3.46v11.2a1,1,0,0,1-1.15,1.14Z"/><path d="M159.77,223.52a8,8,0,0,1-.43,2.66,4.49,4.49,0,0,1-1.53,2,8.26,8.26,0,0,1-3,1.32,24.95,24.95,0,0,1-9.74,0,8.21,8.21,0,0,1-3-1.32,4.49,4.49,0,0,1-1.53-2,7.77,7.77,0,0,1-.43-2.66V207.77a1,1,0,0,1,1.15-1.15h5a1.22,1.22,0,0,1,.88.27,1.2,1.2,0,0,1,.27.88v14.51a1.36,1.36,0,0,0,.48,1.06,3.43,3.43,0,0,0,2.13.43,3.54,3.54,0,0,0,2.16-.43,1.36,1.36,0,0,0,.48-1.06V207.77a1,1,0,0,1,1.14-1.15h4.84a1.24,1.24,0,0,1,.88.27,1.2,1.2,0,0,1,.27.88Z"/><path d="M164.63,229.53a1,1,0,0,1-1.14-1.14V224.6a1.18,1.18,0,0,1,.27-.87,1.19,1.19,0,0,1,.87-.28h3.15V212.76h-3.15a1,1,0,0,1-1.14-1.14v-3.85a1,1,0,0,1,1.14-1.15h13.56a1,1,0,0,1,1.14,1.15v3.85a1,1,0,0,1-1.14,1.14H175.1v10.69h3.09a1.19,1.19,0,0,1,.87.28,1.18,1.18,0,0,1,.27.87v3.79a1,1,0,0,1-1.14,1.14Z"/></svg>