<svg id="Layer_1" data-name="Layer 1" xmlns="http://www.w3.org/2000/svg" viewBox="0 0 960 256"><defs><style>.cls-1{fill:#fff;}</style></defs><title>ssui-horiz-fat</title><rect class="cls-1" width="256" height="256"/><path d="M239.77,16.54V239.77H16.54V16.54H239.77M256.31,0H0V256.31H256.31V0ZM198.22,73.06q-4.82-3.81-12.64-4.87l-16.66-2.12A3,3,0,0,1,166.68,65a3.55,3.55,0,0,1-.78-2.33,3.35,3.35,0,0,1,.78-2.27,2.82,2.82,0,0,1,2.24-.9H195a4.32,4.32,0,0,0,3.07-.91,3.86,3.86,0,0,0,.95-2.91V43.09a3.9,3.9,0,0,0-.95-2.92,4.37,4.37,0,0,0-3.07-.9H163.67q-10.86,0-17,4.82t-6.15,13.83V69q0,8.89,4.75,12.71t12.58,4.87l16.77,2.23a3,3,0,0,1,2.18,1,4,4,0,0,1,.73,2.65,3.31,3.31,0,0,1-.73,2.17,2.63,2.63,0,0,1-2.18.9H144.54a4.37,4.37,0,0,0-3.07.9,3.88,3.88,0,0,0-.95,2.92v12.39a3.87,3.87,0,0,0,.95,2.91,4.37,4.37,0,0,0,3.07.9h35.34q10.74,0,16.94-4.82T203,96.9V85.78Q203,76.88,198.22,73.06Zm-6.35,22.25a10.84,10.84,0,0,1-3.67,8.39c-2.43,2.18-5.72,3.29-9.77,3.29H149.55v-3h28.88a10.9,10.9,0,0,0,7.51-2.44,7.83,7.83,0,0,0,2.75-6.22V89.17c0-3-.53-5.12-1.57-6.16a8.42,8.42,0,0,0-4.44-2.21L159.1,76.25a10.65,10.65,0,0,1-5.26-2.42c-1.46-1.3-2.17-3.49-2.17-6.7V58.45a9.73,9.73,0,0,1,3.47-7.67,13.3,13.3,0,0,1,9-3H190v3H164.11A10,10,0,0,0,157.32,53a6.83,6.83,0,0,0-2.46,5.43v8.68c0,2.19.42,3.71,1.26,4.5a6.59,6.59,0,0,0,3.59,1.64l23.62,4.56a11.64,11.64,0,0,1,6.07,3c1.66,1.62,2.47,4.33,2.47,8.31ZM58.08,115.54H93.42q10.74,0,16.94-4.82t6.21-13.82V85.78q0-8.9-4.81-12.72T99.12,68.19L82.46,66.07A3,3,0,0,1,80.22,65a3.55,3.55,0,0,1-.78-2.33,3.35,3.35,0,0,1,.78-2.27,2.82,2.82,0,0,1,2.24-.9h26.06a4.32,4.32,0,0,0,3.07-.91,3.86,3.86,0,0,0,1-2.91V43.09a3.9,3.9,0,0,0-1-2.92,4.37,4.37,0,0,0-3.07-.9H77.21q-10.84,0-17,4.82T54.06,57.92V69q0,8.89,4.75,12.71t12.58,4.87l16.77,2.23a3.07,3.07,0,0,1,2.19,1,4.05,4.05,0,0,1,.72,2.65,3.36,3.36,0,0,1-.72,2.17,2.66,2.66,0,0,1-2.19.9H58.08a4.37,4.37,0,0,0-3.07.9,3.88,3.88,0,0,0-.95,2.92v12.39a3.87,3.87,0,0,0,.95,2.91A4.37,4.37,0,0,0,58.08,115.54Zm5-11.57H92a10.9,10.9,0,0,0,7.51-2.44,7.83,7.83,0,0,0,2.75-6.22V89.17c0-3-.53-5.12-1.57-6.16a8.42,8.42,0,0,0-4.44-2.21L72.64,76.25a10.65,10.65,0,0,1-5.26-2.42c-1.46-1.3-2.17-3.49-2.17-6.7V58.45a9.73,9.73,0,0,1,3.47-7.67,13.3,13.3,0,0,1,9-3h25.86v3H77.65A10,10,0,0,0,70.86,53a6.86,6.86,0,0,0-2.46,5.43v8.68c0,2.2.42,3.71,1.26,4.5a6.59,6.59,0,0,0,3.59,1.64l23.62,4.56a11.64,11.64,0,0,1,6.07,3c1.66,1.62,2.47,4.33,2.47,8.31v6.14a10.84,10.84,0,0,1-3.67,8.39C99.31,105.88,96,107,92,107H63.09Zm53.22,32.41h-17a4.39,4.39,0,0,0-3.08.9,3.87,3.87,0,0,0-1,2.91V188.5a4.48,4.48,0,0,1-1.67,3.55q-1.68,1.42-7.61,1.42t-7.49-1.42a4.49,4.49,0,0,1-1.68-3.55V140.19a3.83,3.83,0,0,0-1-2.91,4.37,4.37,0,0,0-3.07-.9H55.25a4.37,4.37,0,0,0-3.07.9,3.83,3.83,0,0,0-1,2.91v52.44a24.62,24.62,0,0,0,1.51,8.84,14.82,14.82,0,0,0,5.36,6.78,29.66,29.66,0,0,0,10.57,4.4,76.15,76.15,0,0,0,17.11,1.59,76.15,76.15,0,0,0,17.11-1.59,29.53,29.53,0,0,0,10.56-4.4,14.78,14.78,0,0,0,5.37-6.78,24.62,24.62,0,0,0,1.51-8.84V140.19a3.87,3.87,0,0,0-1-2.91A4.37,4.37,0,0,0,116.31,136.38Zm-6.91,53.71a13.84,13.84,0,0,1-5,11C101,204,95,205.37,85.89,205.37s-15.1-1.39-18.42-4.23a13.94,13.94,0,0,1-5-11V144.93h3.19v45.16a10.82,10.82,0,0,0,4.06,8.84c2.74,2.27,8.17,3.42,16.15,3.42s13.44-1.15,16.21-3.42a10.76,10.76,0,0,0,4.12-8.84V144.93h3.18Zm86.19-53.71H148a4.37,4.37,0,0,0-3.07.9,3.83,3.83,0,0,0-.95,2.91V153a3.83,3.83,0,0,0,.95,2.91,4.37,4.37,0,0,0,3.07.9H159v35.6H148a4.37,4.37,0,0,0-3.07.9,3.83,3.83,0,0,0-.95,2.91v12.61a3.83,3.83,0,0,0,.95,2.91,4.37,4.37,0,0,0,3.07.9h47.64a4.39,4.39,0,0,0,3.08-.9,3.87,3.87,0,0,0,1-2.91V196.23a3.87,3.87,0,0,0-1-2.91,4.39,4.39,0,0,0-3.08-.9H184.74v-35.6h10.85a4.39,4.39,0,0,0,3.08-.9,3.87,3.87,0,0,0,1-2.91V140.19a3.87,3.87,0,0,0-1-2.91A4.39,4.39,0,0,0,195.59,136.38Zm-5,11.57h-17.1v53.13h17.1v3H153v-3h17.33V148H153v-3h37.62Z"/><path d="M361.26,109.15H330.92a3,3,0,0,1-3.46-3.45V94.46A3,3,0,0,1,330.92,91h25.83a2.2,2.2,0,0,0,1.87-.82,3.17,3.17,0,0,0,.62-2,3.81,3.81,0,0,0-.62-2.4,2.53,2.53,0,0,0-1.87-.86l-14.41-2a20.93,20.93,0,0,1-10.8-4.41q-4.08-3.47-4.08-11.53V56.92q0-8.16,5.28-12.53T347.34,40h26.88a3.63,3.63,0,0,1,2.64.81,3.63,3.63,0,0,1,.82,2.65V54.9a3,3,0,0,1-3.46,3.46H351.85a2.34,2.34,0,0,0-1.92.82,3.11,3.11,0,0,0-.67,2.06,3.31,3.31,0,0,0,.67,2.11,2.53,2.53,0,0,0,1.92,1l14.31,1.92A21.26,21.26,0,0,1,377,70.65q4.13,3.46,4.13,11.52V92.26q0,8.16-5.33,12.53T361.26,109.15Z"/><path d="M437.05,109.15h-25a6.11,6.11,0,0,1-3-.67,4.4,4.4,0,0,1-1.87-2.5l-9.41-23.52q-.87-2.11-1.44-3.69c-.39-1.06-.71-2.07-1-3a18.07,18.07,0,0,1-.52-3c-.1-1-.15-2.35-.15-3.88V43.48a3.63,3.63,0,0,1,.82-2.65,3.63,3.63,0,0,1,2.64-.81h15.27a4.21,4.21,0,0,1,2.78.81,3.31,3.31,0,0,1,1,2.65V70a10.41,10.41,0,0,0,.19,1.92,13.48,13.48,0,0,0,.58,2l4.51,13.45a2.81,2.81,0,0,0,.68,1.29,1.66,1.66,0,0,0,1.15.34h1.05a1.69,1.69,0,0,0,1.16-.34,2.81,2.81,0,0,0,.67-1.29l4.51-13.54a13.59,13.59,0,0,0,.58-2,9.62,9.62,0,0,0,.19-1.92V43.48a3.63,3.63,0,0,1,.82-2.65A3.63,3.63,0,0,1,435.9,40H451a3.63,3.63,0,0,1,2.64.81,3.63,3.63,0,0,1,.82,2.65V68.83c0,1.53-.05,2.83-.14,3.88a19.14,19.14,0,0,1-.53,3q-.39,1.44-1,3t-1.44,3.69L442,106a4.46,4.46,0,0,1-1.88,2.5A6.11,6.11,0,0,1,437.05,109.15Z"/><path d="M517.89,109.15H473.34a3,3,0,0,1-3.46-3.45V43.48a3.63,3.63,0,0,1,.82-2.65,3.63,3.63,0,0,1,2.64-.81h44.55a3.63,3.63,0,0,1,2.64.81,3.67,3.67,0,0,1,.82,2.65V54.71a3.63,3.63,0,0,1-.82,2.64,3.58,3.58,0,0,1-2.64.82h-26.5v7.39h18.72A3,3,0,0,1,513.57,69V79.29a3,3,0,0,1-3.46,3.46H491.39V91h26.5a3,3,0,0,1,3.46,3.45V105.7a3,3,0,0,1-3.46,3.45Z"/><path d="M588.85,109.15H540a2.95,2.95,0,0,1-3.45-3.45V43.48a3.67,3.67,0,0,1,.81-2.65A3.66,3.66,0,0,1,540,40h14.89a3.63,3.63,0,0,1,2.64.81,3.67,3.67,0,0,1,.82,2.65V91h13.15V75.45A3,3,0,0,1,574.93,72h13.92a3,3,0,0,1,3.46,3.46V105.7a3,3,0,0,1-3.46,3.45Z"/><path d="M635,109.15H619.39a2.95,2.95,0,0,1-3.45-3.45V58.55H601.82a3,3,0,0,1-3.46-3.46V43.48a3.63,3.63,0,0,1,.82-2.65,3.63,3.63,0,0,1,2.64-.81h50.7a3.63,3.63,0,0,1,2.64.81,3.63,3.63,0,0,1,.82,2.65V55.09a3,3,0,0,1-3.46,3.46H638.4V105.7a2.95,2.95,0,0,1-3.45,3.45Z"/><path d="M718.19,109.15H673.64a3,3,0,0,1-3.46-3.45V43.48a3.63,3.63,0,0,1,.82-2.65,3.63,3.63,0,0,1,2.64-.81h44.55a3.64,3.64,0,0,1,2.64.81,3.67,3.67,0,0,1,.82,2.65V54.71a3,3,0,0,1-3.46,3.46h-26.5v7.39h18.72A3,3,0,0,1,713.87,69V79.29a3,3,0,0,1-3.46,3.46H691.69V91h26.5a3,3,0,0,1,3.46,3.45V105.7a3,3,0,0,1-3.46,3.45Z"/><path d="M361.26,214.38H330.92a3,3,0,0,1-3.46-3.45V199.69a3.58,3.58,0,0,1,.82-2.64,3.63,3.63,0,0,1,2.64-.82h25.83a2.22,2.22,0,0,0,1.87-.81,3.17,3.17,0,0,0,.62-2,3.81,3.81,0,0,0-.62-2.4,2.58,2.58,0,0,0-1.87-.87l-14.41-2a20.85,20.85,0,0,1-10.8-4.42q-4.08-3.45-4.08-11.52V162.15q0-8.16,5.28-12.54t14.6-4.36h26.88a3,3,0,0,1,3.46,3.45v11.43a3.58,3.58,0,0,1-.82,2.64,3.63,3.63,0,0,1-2.64.82H351.85a2.36,2.36,0,0,0-1.92.81,3.16,3.16,0,0,0-.67,2.07,3.33,3.33,0,0,0,.67,2.11,2.53,2.53,0,0,0,1.92,1l14.31,1.92A21.18,21.18,0,0,1,377,175.88q4.13,3.45,4.13,11.52v10.08q0,8.16-5.33,12.53T361.26,214.38Z"/><path d="M430.35,214.38H414.79a3,3,0,0,1-3.45-3.45v-12.3L396.64,179a18.74,18.74,0,0,1-2.92-5.19,22.38,22.38,0,0,1-.72-6.62V148.7a2.95,2.95,0,0,1,3.45-3.45h14.79a3,3,0,0,1,3.46,3.45v15.75c0,.64,0,1.31.09,2a4,4,0,0,0,.77,2L420,175.4a3.77,3.77,0,0,0,1,1.24,2.15,2.15,0,0,0,1.3.39h1a2.13,2.13,0,0,0,1.3-.39,3.78,3.78,0,0,0,1-1.24l4.41-6.92a4,4,0,0,0,.77-2c.06-.71.1-1.38.1-2V148.7a2.95,2.95,0,0,1,3.45-3.45h14.31a3,3,0,0,1,3.46,3.45v18.44a21.43,21.43,0,0,1-.77,6.62A21.41,21.41,0,0,1,448.4,179l-14.6,19.78v12.2a3,3,0,0,1-3.45,3.45Z"/><path d="M500,214.38H469.67a3,3,0,0,1-3.46-3.45V199.69a3.58,3.58,0,0,1,.82-2.64,3.63,3.63,0,0,1,2.64-.82H495.5a2.22,2.22,0,0,0,1.87-.81,3.11,3.11,0,0,0,.62-2,3.75,3.75,0,0,0-.62-2.4,2.58,2.58,0,0,0-1.87-.87l-14.41-2a20.85,20.85,0,0,1-10.8-4.42q-4.08-3.45-4.08-11.52V162.15q0-8.16,5.28-12.54t14.6-4.36H513a3,3,0,0,1,3.46,3.45v11.43a3.58,3.58,0,0,1-.82,2.64,3.63,3.63,0,0,1-2.64.82H490.6a2.36,2.36,0,0,0-1.92.81,3.16,3.16,0,0,0-.67,2.07,3.33,3.33,0,0,0,.67,2.11,2.53,2.53,0,0,0,1.92,1l14.31,1.92a21.14,21.14,0,0,1,10.85,4.42q4.13,3.45,4.13,11.52v10.08q0,8.16-5.33,12.53T500,214.38Z"/><path d="M567.54,214.38H552a3,3,0,0,1-3.46-3.45V163.78H534.42a3,3,0,0,1-3.46-3.46V148.7a2.95,2.95,0,0,1,3.46-3.45h50.69a3,3,0,0,1,3.46,3.45v11.62a3,3,0,0,1-3.46,3.46H571v47.15a3,3,0,0,1-3.46,3.45Z"/><path d="M650.78,214.38H606.23a3,3,0,0,1-3.46-3.45V148.7a3,3,0,0,1,3.46-3.45h44.55a3,3,0,0,1,3.46,3.45v11.24a3,3,0,0,1-3.46,3.45h-26.5v7.4H643a2.95,2.95,0,0,1,3.45,3.46v10.27A3,3,0,0,1,643,188H624.28v8.25h26.5a3.63,3.63,0,0,1,2.64.82,3.58,3.58,0,0,1,.82,2.64v11.24a3,3,0,0,1-3.46,3.45Z"/><path d="M687.17,214.38h-14.3a3,3,0,0,1-3.46-3.45V148.7a3,3,0,0,1,3.46-3.45h15.46a4.47,4.47,0,0,1,2.54.67,6.22,6.22,0,0,1,1.87,2.21l8.64,15.65a8.69,8.69,0,0,0,.82,1.25,1.16,1.16,0,0,0,.91.38H704a1.18,1.18,0,0,0,.91-.38,7.26,7.26,0,0,0,.82-1.25l8.54-15.65a6.24,6.24,0,0,1,1.88-2.21,4.45,4.45,0,0,1,2.54-.67h15.56a2.95,2.95,0,0,1,3.45,3.45v62.23a3,3,0,0,1-3.45,3.45H719.44a3,3,0,0,1-3.46-3.45v-33.8l-5.66,10.46a5.15,5.15,0,0,1-5.09,3.07h-3.85a5.8,5.8,0,0,1-3-.72,5.68,5.68,0,0,1-2.06-2.35l-5.67-10.46v33.8a3,3,0,0,1-3.46,3.45Z"/><path d="M841,196.23a23.63,23.63,0,0,1-1.29,8,13.54,13.54,0,0,1-4.61,6.15,24.65,24.65,0,0,1-9.08,4,75.65,75.65,0,0,1-29.38,0,24.65,24.65,0,0,1-9.08-4,13.45,13.45,0,0,1-4.6-6.15,23.39,23.39,0,0,1-1.3-8V148.7a3,3,0,0,1,3.46-3.45h15.07a3,3,0,0,1,3.46,3.45v43.79a4.17,4.17,0,0,0,1.44,3.22q1.44,1.29,6.43,1.29t6.53-1.29a4.17,4.17,0,0,0,1.44-3.22V148.7a3,3,0,0,1,3.46-3.45h14.59A2.95,2.95,0,0,1,841,148.7Z"/><path d="M859.64,214.38a3,3,0,0,1-3.46-3.45V199.5a3.58,3.58,0,0,1,.82-2.64,3.63,3.63,0,0,1,2.64-.82h9.5V163.78h-9.5a3,3,0,0,1-3.46-3.46V148.7a3,3,0,0,1,3.46-3.45h40.9A3,3,0,0,1,904,148.7v11.62a3,3,0,0,1-3.46,3.46h-9.31V196h9.31a3.63,3.63,0,0,1,2.64.82,3.58,3.58,0,0,1,.82,2.64v11.43a3,3,0,0,1-3.46,3.45Z"/></svg>