<svg id="Layer_1" data-name="Layer 1" xmlns="http://www.w3.org/2000/svg" viewBox="0 0 1250 256"><title>ds-horiz-fat</title><path d="M373.79,173.24H328.16a4.18,4.18,0,0,1-4.87-4.88V80.63a4.17,4.17,0,0,1,4.87-4.87h45.63q16.92,0,25.11,6.77t8.19,20.85v42.24q0,14.07-8.19,20.85T373.79,173.24ZM354,101.62v46h16.11a6.36,6.36,0,0,0,4.81-1.63q1.56-1.62,1.56-5V108.12q0-3.39-1.56-5a6.59,6.59,0,0,0-4.81-1.55Z"/><path d="M490.22,173.24H427.4a4.18,4.18,0,0,1-4.87-4.88V80.63a4.17,4.17,0,0,1,4.87-4.87h62.82a4.17,4.17,0,0,1,4.87,4.87V96.47a4.17,4.17,0,0,1-4.87,4.88H452.85v10.42h26.4a4.18,4.18,0,0,1,4.88,4.88v14.48a4.17,4.17,0,0,1-4.88,4.87h-26.4v11.65h37.37a4.17,4.17,0,0,1,4.87,4.87v15.84a4.18,4.18,0,0,1-4.87,4.88Z"/><path d="M556.2,173.24H513.42a4.18,4.18,0,0,1-4.87-4.88V152.52a4.17,4.17,0,0,1,4.87-4.87h36.42a3.14,3.14,0,0,0,2.64-1.15,4.44,4.44,0,0,0,.88-2.78,5.3,5.3,0,0,0-.88-3.38,3.56,3.56,0,0,0-2.64-1.22l-20.31-2.85q-9.48-1.34-15.23-6.22t-5.75-16.25V99.59q0-11.5,7.44-17.67t20.58-6.16h37.91a4.17,4.17,0,0,1,4.87,4.87V96.74a4.17,4.17,0,0,1-4.87,4.88H542.94a3.29,3.29,0,0,0-2.71,1.15,4.45,4.45,0,0,0-1,2.91,4.74,4.74,0,0,0,1,3,3.6,3.6,0,0,0,2.71,1.35l20.17,2.71q9.46,1.35,15.3,6.23t5.82,16.24v14.22q0,11.51-7.52,17.66T556.2,173.24Z"/><path d="M602.1,173.24a4.17,4.17,0,0,1-4.87-4.88V152.25a4.16,4.16,0,0,1,4.87-4.87h13.4V101.89H602.1A4.16,4.16,0,0,1,597.23,97V80.63a4.16,4.16,0,0,1,4.87-4.87h57.67a4.18,4.18,0,0,1,4.88,4.87V97a4.18,4.18,0,0,1-4.88,4.88H646.64v45.49h13.13a4.18,4.18,0,0,1,4.88,4.87v16.11a4.19,4.19,0,0,1-4.88,4.88Z"/><path d="M754.83,173.24H712.18q-16.92,0-25.12-6.77t-8.18-20.85V103.38q0-14.09,8.18-20.85t25.12-6.77H746a4.17,4.17,0,0,1,4.87,4.87V97a4.17,4.17,0,0,1-4.87,4.88H717.87q-4.2,0-6.23,1.69a6.25,6.25,0,0,0-2,5.08V141c0,2.26.51,3.93,1.55,5a6.18,6.18,0,0,0,4.68,1.63H729V126.53a4.17,4.17,0,0,1,4.87-4.88h21a4.17,4.17,0,0,1,4.87,4.88v41.83a4.18,4.18,0,0,1-4.87,4.88Z"/><path d="M799.84,173.24H779.53a4.18,4.18,0,0,1-4.87-4.88V80.63a4.17,4.17,0,0,1,4.87-4.87h14.08a10.84,10.84,0,0,1,4.4.81,10.55,10.55,0,0,1,3.59,2.84l26.26,30.06V80.63a4.18,4.18,0,0,1,4.88-4.87h20.31a4.17,4.17,0,0,1,4.87,4.87v87.73a4.18,4.18,0,0,1-4.87,4.88H832.74a4.19,4.19,0,0,1-4.88-4.88V151.71l-23.15-28v44.67a4.18,4.18,0,0,1-4.87,4.88Z"/><path d="M938.73,77.76c1.52,0,2.1.35,2.31.56a3.54,3.54,0,0,1,.56,2.31V96.74c0,1.52-.35,2.1-.56,2.31s-.79.57-2.31.57H907.19a5.28,5.28,0,0,0-4.26,1.88,6.4,6.4,0,0,0-1.4,4.18,6.69,6.69,0,0,0,1.37,4.21A5.56,5.56,0,0,0,907,112l20.1,2.7c5.92.84,10.73,2.79,14.3,5.78,3.39,2.84,5.11,7.79,5.11,14.71v14.22c0,7.1-2.22,12.38-6.79,16.12s-11.09,5.71-19.24,5.71H877.67a2.29,2.29,0,0,1-2.87-2.88V152.52a2.28,2.28,0,0,1,2.87-2.87h36.42a5,5,0,0,0,4.22-1.93,6.42,6.42,0,0,0,1.3-4,7.19,7.19,0,0,0-1.33-4.65,5.52,5.52,0,0,0-4-1.94l-20.25-2.84c-5.9-.84-10.69-2.78-14.22-5.77-3.34-2.83-5-7.79-5-14.72V99.59c0-7.11,2.2-12.39,6.72-16.13s11.06-5.7,19.3-5.7h37.91m0-2H900.82q-13.12,0-20.58,6.16T872.8,99.59V113.8q0,11.37,5.75,16.25t15.23,6.22l20.31,2.85a3.56,3.56,0,0,1,2.64,1.22,5.3,5.3,0,0,1,.88,3.38,4.44,4.44,0,0,1-.88,2.78,3.14,3.14,0,0,1-2.64,1.15H877.67a4.17,4.17,0,0,0-4.87,4.87v15.84a4.18,4.18,0,0,0,4.87,4.88h42.78q13,0,20.51-6.17t7.52-17.66V135.19q0-11.37-5.82-16.24t-15.3-6.23L907.19,110a3.6,3.6,0,0,1-2.71-1.35,4.68,4.68,0,0,1-1-3,4.39,4.39,0,0,1,1-2.91,3.29,3.29,0,0,1,2.71-1.15h31.54a4.17,4.17,0,0,0,4.87-4.88V80.63a4.17,4.17,0,0,0-4.87-4.87Z"/><path d="M1008.81,77.76c11.64,0,19.62,2.24,23.72,6.67s6.23,10.43,6.23,17.73v17.33c0,7.29-2.09,13.26-6.23,17.73s-12.08,6.67-23.72,6.67H991.25v24.47a2.3,2.3,0,0,1-2.88,2.88h-21a3.53,3.53,0,0,1-2.31-.57,3.43,3.43,0,0,1-.57-2.31V80.63a3.47,3.47,0,0,1,.57-2.31,3.54,3.54,0,0,1,2.31-.56h41.42M991,123.52h14.19c3.35,0,5.66-1,6.86-3a10.77,10.77,0,0,0,1.5-5.64v-7.17a10.79,10.79,0,0,0-1.5-5.64c-1.2-2-3.51-3-6.86-3H991v24.44m17.84-47.76H967.39a4.17,4.17,0,0,0-4.88,4.87v87.73a4.18,4.18,0,0,0,4.88,4.88h21a4.19,4.19,0,0,0,4.88-4.88V145.89h15.56q18.42,0,25.19-7.31t6.76-19.09V102.16q0-11.77-6.76-19.09t-25.19-7.31ZM993,121.52V101.08h12.19c2.61,0,4.33.67,5.14,2a8.69,8.69,0,0,1,1.22,4.6v7.17a8.73,8.73,0,0,1-1.22,4.61c-.81,1.35-2.53,2-5.14,2Z"/><path d="M1122.17,77.76a3.5,3.5,0,0,1,2.31.56,3.47,3.47,0,0,1,.57,2.31V96.47c0,1.52-.36,2.1-.57,2.31a3.49,3.49,0,0,1-2.31.57h-39.36v14.42h28.4a2.3,2.3,0,0,1,2.87,2.88v14.48a2.29,2.29,0,0,1-2.87,2.87h-28.4v15.65h39.36a2.29,2.29,0,0,1,2.88,2.87v15.84a3.45,3.45,0,0,1-.57,2.31,3.49,3.49,0,0,1-2.31.57h-62.81a3.54,3.54,0,0,1-2.32-.57,3.5,3.5,0,0,1-.56-2.31V80.63a3.47,3.47,0,0,1,.57-2.31,3.52,3.52,0,0,1,2.31-.56h62.81m0-2h-62.81a4.17,4.17,0,0,0-4.88,4.87v87.73a4.18,4.18,0,0,0,4.88,4.88h62.81a4.19,4.19,0,0,0,4.88-4.88V152.52a4.18,4.18,0,0,0-4.88-4.87h-37.36V136h26.4a4.17,4.17,0,0,0,4.87-4.87V116.65a4.17,4.17,0,0,0-4.87-4.88h-26.4V101.35h37.36a4.18,4.18,0,0,0,4.88-4.88V80.63a4.18,4.18,0,0,0-4.88-4.87Z"/><path d="M1219.38,77.76c1,0,1.42.22,1.47.29a2.51,2.51,0,0,1-.32,1.37L1206.71,111l-1.15,2.64,2.88.16c4.55.24,8.07,1.78,10.75,4.7s4,6.77,4,11.71v38.18a2.3,2.3,0,0,1-2.87,2.88h-20.85c-1.52,0-2.1-.36-2.31-.57a3.45,3.45,0,0,1-.57-2.31V142a6.88,6.88,0,0,0-1.58-4.71,6,6,0,0,0-4.75-1.89H1170.4v33a2.3,2.3,0,0,1-2.87,2.88h-21a2.29,2.29,0,0,1-2.87-2.88V80.63a3.54,3.54,0,0,1,.56-2.31,3.54,3.54,0,0,1,2.31-.56h21a3.48,3.48,0,0,1,2.3.56,3.47,3.47,0,0,1,.57,2.31v33.14h8.72l.52-1.19L1193.59,81l0,0v0a4.93,4.93,0,0,1,1.77-2.48,6,6,0,0,1,3.14-.71h20.85m0-2h-20.85a7.89,7.89,0,0,0-4.2,1,6.8,6.8,0,0,0-2.57,3.46l-14,31.54h-5.41V80.63a4.17,4.17,0,0,0-4.87-4.87h-21a4.17,4.17,0,0,0-4.87,4.87v87.73a4.18,4.18,0,0,0,4.87,4.88h21a4.18,4.18,0,0,0,4.87-4.88v-31h17.87a4.1,4.1,0,0,1,3.25,1.22,4.92,4.92,0,0,1,1.08,3.38v26.4a4.18,4.18,0,0,0,4.88,4.88h20.85a4.18,4.18,0,0,0,4.87-4.88V130.18q0-8.12-4.54-13.06a16.92,16.92,0,0,0-12.11-5.35l13.81-31.54c.63-1.45.67-2.55.13-3.32s-1.58-1.15-3.11-1.15Z"/><path d="M114.39,97.58a14,14,0,0,0-3.3-6.31,16.67,16.67,0,0,0-6.92-4.21A35.85,35.85,0,0,0,92.56,85.5H58.49v75.93H92.56A38.46,38.46,0,0,0,104.23,160a16.54,16.54,0,0,0,7-4.08,12.81,12.81,0,0,0,3.23-6.18,35.85,35.85,0,0,0,.77-7.6V105.26A33.73,33.73,0,0,0,114.39,97.58ZM113,142.09a30.39,30.39,0,0,1-.75,6.92,11.25,11.25,0,0,1-2.88,5.36,14.79,14.79,0,0,1-6.15,3.51,35.85,35.85,0,0,1-10.64,1.29H60.75V87.76H92.56a33.5,33.5,0,0,1,10.5,1.37,14.76,14.76,0,0,1,6.14,3.64,12.27,12.27,0,0,1,3,5.5,29.11,29.11,0,0,1,.82,7Zm-21.11,6.4H74.08V98.73H91.87a7.93,7.93,0,0,1,5.81,2c1.31,1.31,2,3.31,2,6v33.77c0,2.64-.65,4.66-2,6A7.71,7.71,0,0,1,91.87,148.49ZM76.58,146H91.87a5.44,5.44,0,0,0,4-1.29,6.06,6.06,0,0,0,1.25-4.28V106.65c0-2-.41-3.37-1.23-4.19a5.59,5.59,0,0,0-4-1.23H76.58Zm127.3,1a13.76,13.76,0,0,1-4.31,10.39c-2.84,2.71-6.73,4.08-11.55,4.08H153v-2.26H188c4.13,0,7.47-1.15,9.92-3.42a11.52,11.52,0,0,0,3.68-8.79V138.9c0-4.23-.73-7.14-2.17-8.67a11.18,11.18,0,0,0-6-3.14l-29.33-6a12.06,12.06,0,0,1-6.12-3c-1.61-1.51-2.43-4.26-2.43-8.17V98.59a12.23,12.23,0,0,1,4-9.43c2.66-2.43,6.22-3.66,10.58-3.66h31.29v2.26H170.23a12.86,12.86,0,0,0-9,3.08,10.1,10.1,0,0,0-3.34,7.75V110c0,3.12.61,5.31,1.82,6.51a8.9,8.9,0,0,0,4.91,2.38l29.34,6a13.38,13.38,0,0,1,7.11,3.73c1.88,1.93,2.83,5.4,2.83,10.32ZM121.7,78.89h0c-5.81-4.8-14.76-7.23-26.58-7.23H48.27A9.06,9.06,0,0,0,46,72L17.65,15.82,15.42,17,43.73,73.08l-.16.12A6.43,6.43,0,0,0,42,77.91V168a6.7,6.7,0,0,0,1.29,4.37l-27.93,66.5,2.31,1,27.73-66a8.72,8.72,0,0,0,2.85.43H95.12c11.83,0,20.77-2.44,26.58-7.24s8.86-12.38,8.86-22.37V101.26C130.56,91.28,127.58,83.76,121.7,78.89Zm6.36,65.74c0,9.21-2.67,16.08-8,20.44s-13.76,6.67-25,6.67H48.27a4.17,4.17,0,0,1-2.94-.82,4.12,4.12,0,0,1-.81-2.93V77.91A4.15,4.15,0,0,1,45.33,75a4.25,4.25,0,0,1,2.94-.81H95.12c11.23,0,19.63,2.24,25,6.66s8,11.24,8,20.44Zm113.05,95-28.86-72.46c5-4.42,7.6-10.67,7.6-18.61V133.93c0-8.13-2.16-14.07-6.42-17.64h0c-4.15-3.47-9.65-5.72-16.35-6.67l-20.78-2.79a2.48,2.48,0,0,1-1.89-.91,3.56,3.56,0,0,1-.71-2.29,3.33,3.33,0,0,1,.69-2.2,2.1,2.1,0,0,1,1.81-.72h32.39a5.49,5.49,0,0,0,6.25-6.26V77.91a7.23,7.23,0,0,0-1-4l27.23-57.58-2.26-1.07-27,57a7.91,7.91,0,0,0-3.27-.62H169.67c-9.24,0-16.62,2.22-21.93,6.61s-8.09,10.87-8.09,19.1V112c0,8.13,2.13,14.06,6.35,17.63s9.57,5.73,16.27,6.68l20.93,2.93A2.44,2.44,0,0,1,185,140a4.42,4.42,0,0,1,.63,2.69,3.34,3.34,0,0,1-.65,2.09,2,2,0,0,1-1.72.69H145.9a5.49,5.49,0,0,0-6.25,6.25V168a5.49,5.49,0,0,0,6.25,6.25h43.93c8.34,0,15.17-1.87,20.36-5.52l28.6,71.79ZM145.9,171.74a3.09,3.09,0,0,1-3.75-3.75V151.72A3.09,3.09,0,0,1,145.9,148h37.39A4.45,4.45,0,0,0,187,146.3a5.8,5.8,0,0,0,1.16-3.61,6.57,6.57,0,0,0-1.19-4.27,4.81,4.81,0,0,0-3.5-1.7l-20.85-2.92c-6.22-.88-11.27-2.94-15-6.11s-5.46-8.36-5.46-15.72V97.37c0-7.55,2.35-13.17,7.19-17.18s11.68-6,20.33-6h38.92a4.22,4.22,0,0,1,2.94.81,4.24,4.24,0,0,1,.81,2.94V94.45a3.1,3.1,0,0,1-3.75,3.76H176.2a4.6,4.6,0,0,0-3.74,1.63,5.76,5.76,0,0,0-1.26,3.79,6.06,6.06,0,0,0,1.24,3.82,4.83,4.83,0,0,0,3.6,1.86l20.7,2.78c6.22.89,11.3,3,15.08,6.12s5.53,8.36,5.53,15.72v14.59c0,7.56-2.37,13.18-7.26,17.18s-11.71,6-20.26,6ZM246.35,9.5H9.65V246.19h236.7Zm-6.58,230.12H16.54V16.38H239.77ZM0-.15v256.3H256.31V-.15ZM251.35,251.19H4.65V4.5h246.7Z"/></svg>